<svg width="879" height="458" viewBox="0 0 879 458" fill="none" xmlns="http://www.w3.org/2000/svg">
<path d="M73.4144 377.715V388.99" stroke="#DB7395" stroke-width="1.847" stroke-miterlimit="10" stroke-linecap="round" stroke-linejoin="round"/>
<path d="M67.7742 383.358H79.0551" stroke="#DB7395" stroke-width="1.847" stroke-miterlimit="10" stroke-linecap="round" stroke-linejoin="round"/>
<g opacity="0.2">
<path d="M871.468 279.558V290.844" stroke="#DB7395" stroke-width="1.847" stroke-miterlimit="10" stroke-linecap="round" stroke-linejoin="round"/>
<path d="M865.827 285.201H877.108" stroke="#DB7395" stroke-width="1.847" stroke-miterlimit="10" stroke-linecap="round" stroke-linejoin="round"/>
</g>
<path opacity="0.5" d="M83.9517 67.3298V78.6158" stroke="#634FA1" stroke-width="1.847" stroke-miterlimit="10" stroke-linecap="round" stroke-linejoin="round"/>
<path opacity="0.5" d="M78.3219 72.9729H89.5932" stroke="#634FA1" stroke-width="1.847" stroke-miterlimit="10" stroke-linecap="round" stroke-linejoin="round"/>
<g opacity="0.3">
<path d="M142.009 259.538V270.824" stroke="#EEDA37" stroke-width="1.847" stroke-miterlimit="10" stroke-linecap="round" stroke-linejoin="round"/>
<path d="M136.368 265.181H147.649" stroke="#EEDA37" stroke-width="1.847" stroke-miterlimit="10" stroke-linecap="round" stroke-linejoin="round"/>
</g>
<path d="M88.4021 437.363C88.4021 448.761 79.1675 458 67.7741 458C56.3807 458 47.1456 448.761 47.1456 437.363C47.1456 425.965 56.3807 416.727 67.7741 416.727C79.1675 416.727 88.4021 425.965 88.4021 437.363Z" fill="#E4B0C8"/>
<path d="M80.1753 428.644H55.9834V446.826H80.1753V428.644Z" stroke="white" stroke-width="2.463" stroke-miterlimit="10"/>
<path d="M55.9834 428.644L68.0793 439.818L80.1753 428.644" stroke="white" stroke-width="2.463" stroke-miterlimit="10"/>
<path d="M403.629 205.532C403.629 208.13 401.521 210.228 398.935 210.228C396.339 210.228 394.241 208.119 394.241 205.532C394.241 202.935 396.349 200.836 398.935 200.836C401.531 200.836 403.629 202.935 403.629 205.532Z" fill="#EEDA37"/>
<path opacity="0.3" d="M108.694 346.108C49.7726 346.108 2 300.76 2 244.819C2 205.277 25.866 171.032 60.6671 154.348" stroke="#C3BFDF" stroke-width="2.463" stroke-miterlimit="10" stroke-dasharray="9.85 9.85"/>
<path opacity="0.5" d="M327.938 299.008C393.101 397.811 320.81 453.834 272.6 449.423C231.456 445.655 194.72 425.456 190.393 385.853" stroke="#C3BFDF" stroke-width="2.463" stroke-miterlimit="10" stroke-dasharray="9.85 9.85"/>
<path opacity="0.1" d="M497.646 105.395C497.646 144.671 465.096 176.523 424.939 176.523C384.782 176.523 352.231 144.682 352.231 105.395C352.231 66.1177 384.782 34.2664 424.939 34.2664C465.096 34.2664 497.646 66.1177 497.646 105.395Z" stroke="#076CAD" stroke-width="2.463" stroke-miterlimit="10" stroke-dasharray="9.85 9.85"/>
<path opacity="0.3" d="M271.775 201.855C271.775 239.329 240.721 269.714 202.407 269.714C164.093 269.714 133.038 239.329 133.038 201.855C133.038 164.381 164.103 133.997 202.407 133.997C240.711 133.997 271.775 164.381 271.775 201.855Z" stroke="#C3BFDF" stroke-width="2.463" stroke-miterlimit="10" stroke-dasharray="9.85 9.85"/>
<path opacity="0.3" d="M588.161 300.893C588.161 335.627 557.708 363.791 520.138 363.791C482.567 363.791 452.114 335.637 452.114 300.893C452.114 266.159 482.567 238.005 520.138 238.005C557.708 238.005 588.161 266.159 588.161 300.893Z" stroke="#C3BFDF" stroke-width="2.463" stroke-miterlimit="10" stroke-dasharray="9.85 9.85"/>
<path d="M229.897 429.408H92.4333C79.4923 429.408 69.0054 418.906 69.0054 405.96V325.807C69.0054 312.861 79.4926 302.359 92.4438 302.359H229.907C242.848 302.359 253.346 312.861 253.346 325.807V405.96C253.335 418.917 242.848 429.408 229.897 429.408Z" fill="#EDE4EB"/>
<path d="M217.7 406.592H104.642C91.7007 406.592 81.2133 396.1 81.2133 383.154V333.202C81.2133 320.256 91.7106 309.754 104.652 309.754H217.71C230.651 309.754 241.148 320.246 241.148 333.202V383.154C241.138 396.1 230.641 406.592 217.7 406.592Z" fill="white"/>
<path d="M128.997 354.012C128.997 354.012 120.312 381.371 138.059 387.412C155.795 393.452 157.781 388.451 161.731 397.903C165.672 407.345 181.463 403.271 182.97 388.736C184.477 374.201 173.756 375.331 168.176 374.577C162.597 373.824 158.87 363.566 158.931 358.229C158.972 352.892 131.003 342.869 128.997 354.012Z" fill="#130E43"/>
<path d="M187.083 399.156C167.575 380.821 148.668 379.67 148.668 379.67V405.459H191.522L187.083 399.156Z" fill="#B41E39"/>
<path d="M150.623 444.555C150.623 444.555 158.229 439.472 177.869 444.3C177.869 444.3 181.677 446.011 178.755 446.785C175.833 447.559 168.533 446.388 168.533 446.388C168.533 446.388 179.844 447.417 180.099 449.393C180.353 451.359 169.428 449.444 169.428 449.444C169.428 449.444 181.198 451.298 181.056 453.294C180.913 455.291 174.377 453.06 168.024 453.518C161.67 453.977 150.083 458.642 148.291 457.348C146.509 456.065 142.589 447.549 150.623 444.555Z" fill="white"/>
<path d="M113.147 387.613C124.216 381.997 135.637 379.976 146.064 379.92L152.095 406.355L96.9852 405.459C94.1178 399.365 106.565 391.023 113.147 387.613Z" fill="#B41E39"/>
<path d="M127.361 404.114C127.361 404.114 121.119 399.593 123.522 397.516C125.925 395.432 128.001 399.732 128.001 399.732C128.001 399.732 129.45 395.964 131.513 397.224C133.576 398.478 127.361 404.114 127.361 404.114Z" fill="#EEDA37"/>
<path d="M127.361 404.114C127.361 404.114 121.119 399.593 123.522 397.516C125.925 395.432 128.001 399.732 128.001 399.732C128.001 399.732 129.45 395.964 131.513 397.224C133.576 398.478 127.361 404.114 127.361 404.114Z" stroke="#1C191B" stroke-miterlimit="10"/>
<path d="M154.899 383.683C154.899 387.106 150.134 389.887 144.259 389.887C138.384 389.887 133.619 387.106 133.619 383.683C133.619 380.261 138.384 377.48 144.259 377.48C150.134 377.48 154.899 380.261 154.899 383.683Z" fill="#EEDA37"/>
<path d="M154.899 383.683C154.899 387.106 150.134 389.887 144.259 389.887C138.384 389.887 133.619 387.106 133.619 383.683C133.619 380.261 138.384 377.48 144.259 377.48C150.134 377.48 154.899 380.261 154.899 383.683Z" stroke="#1C191B" stroke-width="2.463" stroke-miterlimit="10"/>
<path d="M124.435 354.012C124.435 358.341 127.979 361.855 132.347 361.855C136.715 361.855 140.247 358.341 140.247 354.012C140.247 349.683 136.704 346.169 132.347 346.169C127.989 346.169 124.435 349.683 124.435 354.012Z" fill="white"/>
<path d="M132.346 361.855C136.71 361.855 140.247 358.344 140.247 354.012C140.247 349.68 136.71 346.169 132.346 346.169C127.983 346.169 124.445 349.68 124.445 354.012C124.445 358.344 127.983 361.855 132.346 361.855Z" stroke="#010101" stroke-width="2.463" stroke-miterlimit="10"/>
<path d="M157.343 331.083H147.986C141.765 331.083 136.684 336.879 136.684 343.969V358.473C136.684 358.881 136.704 359.288 136.735 359.685C136.633 360.113 136.572 360.562 136.572 361.01V369.841V370.33V379.161C136.572 382.369 139.189 384.987 142.396 384.987H146.112C149.32 384.987 151.936 382.369 151.936 379.161V371.348H157.343C163.564 371.348 168.655 365.553 168.655 358.473V343.969C168.655 336.879 163.564 331.083 157.343 331.083Z" fill="white"/>
<path d="M157.343 331.083H147.986C141.765 331.083 136.684 336.879 136.684 343.969V358.473C136.684 358.881 136.704 359.288 136.735 359.685C136.633 360.113 136.572 360.562 136.572 361.01V369.841V370.33V379.161C136.572 382.369 139.189 384.987 142.396 384.987H146.112C149.32 384.987 151.936 382.369 151.936 379.161V371.348H157.343C163.564 371.348 168.655 365.553 168.655 358.473V343.969C168.655 336.879 163.564 331.083 157.343 331.083Z" stroke="#010101" stroke-width="2.463" stroke-miterlimit="10"/>
<path d="M135.89 350.488C135.89 350.488 145.063 347.442 147.843 341.514C150.623 335.596 149.931 334.323 149.931 334.323C149.931 334.323 155.103 341.402 163.269 343.144C170.009 344.58 169.734 343.582 170.406 342.013C171.017 340.577 171.424 330.584 161.181 324.432C150.938 318.28 139.932 318.891 132.336 326.551C124.741 334.21 125.667 346.281 128.223 349.296C130.789 352.311 134.149 353.991 135.89 350.488Z" fill="#130E43"/>
<path d="M141.499 312.891C141.499 317.954 137.397 322.049 132.346 322.049C127.286 322.049 123.193 317.944 123.193 312.891C123.193 307.839 127.296 303.734 132.346 303.734C137.397 303.734 141.499 307.829 141.499 312.891Z" fill="#130E43"/>
<path d="M124.893 354.012C124.893 358.096 128.222 361.407 132.336 361.407C136.45 361.407 139.779 358.096 139.779 354.012C139.779 349.927 136.45 346.617 132.336 346.617C128.233 346.627 124.893 349.927 124.893 354.012Z" fill="white"/>
<path d="M136.368 354.99C136.368 354.99 136.694 349.968 131.542 350.528" stroke="#030303" stroke-width="2.463" stroke-miterlimit="10"/>
<path d="M149.931 348.695C149.931 349.866 150.877 350.803 152.038 350.803C153.209 350.803 154.145 349.856 154.145 348.695C154.145 347.534 153.199 346.586 152.038 346.586C150.877 346.586 149.931 347.534 149.931 348.695Z" fill="#010101"/>
<path d="M163.737 348.389C163.737 349.388 164.541 350.192 165.539 350.192C166.537 350.192 167.342 349.388 167.342 348.389C167.342 347.391 166.537 346.586 165.539 346.586C164.541 346.586 163.737 347.391 163.737 348.389Z" fill="#010101"/>
<path d="M161.721 357.027C161.721 357.027 160.662 360.113 158.422 360.327C156.182 360.541 154.42 358.056 154.308 356.121" stroke="#0D0E0E" stroke-width="2.463" stroke-miterlimit="10"/>
<path d="M142.599 356.457C142.599 359.349 144.941 361.702 147.843 361.702C150.745 361.702 153.087 359.36 153.087 356.457C153.087 353.564 150.745 351.211 147.843 351.211C144.951 351.211 142.599 353.564 142.599 356.457Z" fill="#E4B0C8"/>
<path d="M167.249 352.902C167.565 352.902 167.881 352.942 168.176 353.014V358.453C168.176 359.268 168.145 360.052 167.982 360.816C167.769 360.857 167.483 360.887 167.249 360.887C165.05 360.887 163.258 359.105 163.258 356.895C163.258 354.684 165.04 352.902 167.249 352.902Z" fill="#E4B0C8"/>
<path d="M159.348 346.586L158.921 353.778L162.351 351.679L159.348 346.586Z" fill="#DB7395"/>
<path d="M226.609 331.083H188.906C185.159 331.083 182.125 328.048 182.125 324.3C182.125 320.551 185.159 317.516 188.906 317.516H226.609C230.356 317.516 233.39 320.551 233.39 324.3C233.379 328.048 230.346 331.083 226.609 331.083Z" stroke="#DCDCDC" stroke-width="2.463" stroke-miterlimit="10"/>
<path d="M217.7 406.592H104.642C91.7007 406.592 81.2133 396.1 81.2133 383.154V333.202C81.2133 320.256 91.7106 309.754 104.652 309.754H217.71C230.651 309.754 241.148 320.246 241.148 333.202V383.154C241.138 396.1 230.641 406.592 217.7 406.592Z" stroke="#A0A0A0" stroke-width="2.463" stroke-miterlimit="10"/>
<path d="M188.987 195.703H73.384C62.4998 195.703 53.6724 186.871 53.6724 175.983V108.572C53.6724 97.6837 62.4998 88.8525 73.384 88.8525H188.987C199.871 88.8525 208.699 97.6837 208.699 108.572V175.983C208.699 186.882 199.871 195.703 188.987 195.703Z" fill="#EDE4EB"/>
<path d="M134.067 185.822C133.884 189.235 128.742 189.265 128.742 185.822C128.742 182.38 133.873 182.41 134.067 185.822C134.169 187.829 137.315 187.839 137.203 185.822C137.03 182.685 134.688 180.027 131.41 180.027C128.263 180.027 125.616 182.675 125.616 185.822C125.616 188.888 128.121 191.486 131.185 191.608C134.545 191.74 137.04 189.061 137.213 185.822C137.305 183.806 134.169 183.816 134.067 185.822Z" fill="#010101"/>
<path d="M128.284 132C128.284 132 127.306 134.862 125.229 135.066C123.152 135.26 121.523 132.958 121.411 131.165L128.284 132Z" fill="#F7F6F6"/>
<path d="M178.724 176.523H83.6367C72.7525 176.523 63.925 167.692 63.925 156.803V114.796C63.925 103.907 72.7525 95.0762 83.6367 95.0762H178.714C189.598 95.0762 198.426 103.907 198.426 114.796V156.803C198.436 167.692 189.608 176.523 178.724 176.523Z" fill="white" stroke="#A0A0A0" stroke-width="2.463" stroke-miterlimit="10"/>
<path d="M384.609 264.926H267.936C256.95 264.926 248.041 256.014 248.041 245.023V176.991C248.041 166.001 256.95 157.088 267.936 157.088H384.619C395.605 157.088 404.514 166.001 404.514 176.991V245.023C404.504 256.014 395.595 264.926 384.609 264.926Z" fill="#EDE4EB"/>
<path d="M329.19 254.944C329.007 258.407 323.793 258.438 323.793 254.944C323.793 251.45 329.007 251.481 329.19 254.944C329.302 256.951 332.438 256.961 332.326 254.944C332.153 251.786 329.79 249.107 326.492 249.107C323.325 249.107 320.657 251.776 320.657 254.944C320.657 258.03 323.183 260.648 326.257 260.77C329.648 260.903 332.153 258.203 332.326 254.944C332.438 252.927 329.302 252.937 329.19 254.944Z" fill="#010101"/>
<path d="M374.254 245.553H278.291C267.305 245.553 258.396 236.64 258.396 225.649V183.266C258.396 172.275 267.305 163.363 278.291 163.363H374.254C385.24 163.363 394.149 172.275 394.149 183.266V225.66C394.149 236.65 385.24 245.553 374.254 245.553Z" fill="white"/>
<mask id="mask0" mask-type="alpha" maskUnits="userSpaceOnUse" x="65" y="93" width="136" height="82">
<path d="M180.421 174.619H85.3338C74.4495 174.619 65.6221 165.788 65.6221 154.899V112.892C65.6221 102.004 74.4495 93.1724 85.3338 93.1724H180.411C191.295 93.1724 200.123 102.004 200.123 112.892V154.899C200.133 165.788 191.305 174.619 180.421 174.619Z" fill="white"/>
</mask>
<g mask="url(#mask0)">
<path d="M112.224 155.002C86.9836 155.002 66.5183 173.057 66.5183 195.326H157.919C157.919 173.057 137.464 155.002 112.224 155.002Z" fill="#D56A27"/>
<path d="M97.8402 168.73C97.8402 170.533 96.384 171.99 94.5818 171.99C92.7797 171.99 91.324 170.533 91.324 168.73C91.324 166.928 92.7797 165.471 94.5818 165.471C96.384 165.471 97.8402 166.928 97.8402 168.73Z" fill="#EEDA37"/>
<path d="M127.918 168.73C127.918 170.533 126.461 171.99 124.659 171.99C122.857 171.99 121.401 170.533 121.401 168.73C121.401 166.928 122.857 165.471 124.659 165.471C126.461 165.471 127.918 166.928 127.918 168.73Z" fill="#EEDA37"/>
<path d="M143.322 177.144C143.322 178.692 142.07 179.945 140.522 179.945C138.975 179.945 137.712 178.692 137.712 177.144C137.712 175.596 138.964 174.343 140.522 174.343C142.07 174.343 143.322 175.596 143.322 177.144Z" fill="#EEDA37"/>
<path d="M161.222 182.512L162.128 179.456C162.128 179.456 162.22 178.641 161.049 178.183C159.878 177.735 141.927 170.818 141.927 170.818C141.927 170.818 140.39 169.912 139.972 171.022C139.555 172.122 136.572 177.001 136.572 177.001C136.572 177.001 135.717 178.244 136.755 178.814C137.794 179.385 154.054 185.517 154.054 185.517L158.208 187.238C158.208 187.238 159.522 187.707 159.735 187.075C159.959 186.454 161.222 182.512 161.222 182.512Z" fill="#634FA1"/>
<path d="M166.231 161.02C166.231 161.02 167.85 152.667 166.517 151.099C165.183 149.53 163.92 151.211 163.269 153.319C162.607 155.428 161.568 159.421 161.568 159.421L157.383 150.997C157.383 150.997 166.689 144.213 167.036 142.97C167.382 141.728 167.463 140.903 166.822 140.892C166.18 140.882 164.195 141.412 164.195 141.412C164.195 141.412 167.331 138.376 166.363 137.297C165.386 136.217 161.985 138.692 161.985 138.692C161.985 138.692 163.207 134.088 162.647 133.202C162.087 132.316 158.279 137.562 157.231 139.507C156.172 141.463 154.288 144.702 154.288 144.702C154.288 144.702 153.036 145.68 153.087 146.209C153.138 146.739 151.549 147.9 151.305 148.114C151.061 148.328 149.167 152.301 147.364 156.344C145.562 160.388 142.915 165.889 142.915 165.889L141.612 168.384C141.612 168.384 140.227 170.421 143.108 171.246C146 172.071 157.424 176.757 157.424 176.757L161.049 178.152C161.049 178.152 162.138 179.68 163.024 176.166C163.91 172.693 166.231 161.02 166.231 161.02Z" fill="white"/>
<path d="M159.083 188.97C165.376 171.389 168.013 153.004 166.526 151.099C164.449 148.461 163.176 152.963 161.568 159.431L157.383 151.007C157.383 151.007 167.422 144.172 167.422 141.453C167.422 138.733 151.682 146.434 150.297 149.296C149.411 151.14 144.065 166.194 135.055 179.273" stroke="#A0A0A0" stroke-width="2.463" stroke-miterlimit="10"/>
<path d="M163.186 141.677C163.186 141.677 167.33 139.11 166.363 137.317C165.396 135.535 152.821 144.407 153.137 146.76" stroke="#A0A0A0" stroke-width="2.463" stroke-miterlimit="10"/>
<path d="M161.537 138.977C161.537 138.977 164.113 133.854 162.637 133.222C161.161 132.591 155.876 141.116 155.255 143.724" stroke="#A0A0A0" stroke-width="2.463" stroke-miterlimit="10"/>
<path d="M162.351 178.682L140.583 170.299" stroke="#A0A0A0" stroke-width="2.463" stroke-miterlimit="10"/>
<path d="M151.447 174.323L148.169 182.879" stroke="#A0A0A0" stroke-width="2.463" stroke-miterlimit="10"/>
<path d="M147.12 172.723L144.147 181.259" stroke="#A0A0A0" stroke-width="2.463" stroke-miterlimit="10"/>
<path d="M143.474 171.389L139.911 179.599" stroke="#A0A0A0" stroke-width="2.463" stroke-miterlimit="10"/>
</g>
<path d="M94.1343 129.209C94.1343 132.998 97.2297 136.064 101.038 136.064C104.856 136.064 107.94 132.998 107.94 129.209C107.94 125.42 104.845 122.354 101.038 122.354C97.2297 122.354 94.1343 125.42 94.1343 129.209Z" stroke="#A0A0A0" stroke-width="4.925" stroke-miterlimit="10"/>
<path d="M121.961 156.731C121.961 159.909 117.542 162.486 112.095 162.486C106.647 162.486 102.229 159.909 102.229 156.731C102.229 153.553 106.647 150.976 112.095 150.976C117.542 150.976 121.961 153.553 121.961 156.731Z" fill="#B41F74"/>
<path d="M124.221 107.941H115.546C109.783 107.941 105.059 113.319 105.059 119.889V133.345C105.059 133.721 105.079 134.098 105.11 134.465C105.018 134.862 104.957 135.27 104.957 135.698V143.887V144.345V152.535C104.957 155.509 107.39 157.944 110.363 157.944H113.805C116.778 157.944 119.201 155.509 119.201 152.535V145.293H124.221C129.984 145.293 134.708 139.914 134.708 133.345V119.889C134.708 113.319 129.994 107.941 124.221 107.941Z" fill="white"/>
<path d="M124.221 107.941H115.546C109.783 107.941 105.059 113.319 105.059 119.889V133.345C105.059 133.721 105.079 134.098 105.11 134.465C105.018 134.862 104.957 135.27 104.957 135.698V143.887V144.345V152.535C104.957 155.509 107.39 157.944 110.363 157.944H113.805C116.778 157.944 119.201 155.509 119.201 152.535V145.293H124.221C129.984 145.293 134.708 139.914 134.708 133.345V119.889C134.708 113.319 129.994 107.941 124.221 107.941Z" stroke="#A0A0A0" stroke-width="2.463" stroke-miterlimit="10"/>
<path d="M117.349 124.279C117.349 125.359 118.224 126.235 119.304 126.235C120.383 126.235 121.258 125.359 121.258 124.279C121.258 123.199 120.383 122.323 119.304 122.323C118.224 122.323 117.349 123.199 117.349 124.279Z" fill="#161616"/>
<path d="M130.147 123.994C130.147 124.921 130.891 125.664 131.817 125.664C132.733 125.664 133.487 124.921 133.487 123.994C133.487 123.067 132.744 122.323 131.817 122.323C130.901 122.323 130.147 123.077 130.147 123.994Z" fill="#161616"/>
<path d="M126.929 131.633C126.756 132.112 126.258 133.09 125.626 133.467C124.231 134.302 122.928 132.377 122.796 131.165C122.328 131.633 121.859 132.102 121.391 132.571C123.682 132.846 125.972 133.131 128.263 133.416C130.045 133.63 130.035 130.829 128.263 130.615C125.972 130.34 123.682 130.055 121.391 129.769C120.698 129.688 119.914 130.482 119.986 131.175C120.291 133.935 122.48 136.92 125.576 136.431C127.602 136.105 128.966 134.221 129.608 132.387C130.239 130.676 127.53 129.943 126.929 131.633Z" fill="#161616"/>
<path d="M110.557 131.481C110.557 134.17 112.736 136.339 115.414 136.339C118.102 136.339 120.27 134.159 120.27 131.481C120.27 128.791 118.092 126.622 115.414 126.622C112.726 126.612 110.557 128.791 110.557 131.481Z" fill="#E4B0C8"/>
<path d="M133.405 128.18C133.701 128.18 133.985 128.221 134.26 128.282V133.324C134.26 134.078 134.23 134.801 134.077 135.514C133.873 135.545 133.609 135.575 133.405 135.575C131.359 135.575 129.709 133.915 129.709 131.878C129.709 129.841 131.359 128.18 133.405 128.18Z" fill="#E4B0C8"/>
<path d="M126.085 122.323L125.687 128.985L128.864 127.05L126.085 122.323Z" fill="#DA6981"/>
<path d="M107.431 126.612L108.938 118.453C108.938 118.453 117.379 121.152 123.844 115.978C130.299 110.803 119.7 108.725 121.411 112.575C123.121 116.426 129.047 118.015 136.368 117.21C147.272 116.008 147.547 102.828 141.275 98.9569C135.003 95.0863 127.917 99.6394 127.917 99.6394C127.917 99.6394 131.185 93.1 123.019 90.9203C116.31 89.1275 111.29 94.8113 110.547 97.3272C110.547 97.3272 99.4896 98.4171 94.5718 105.364C89.6541 112.311 89.2672 120.622 94.1239 128.19C98.9806 135.759 104.774 139.843 104.774 139.843C104.774 139.843 105.731 130.034 107.431 126.612Z" fill="#130E43"/>
<path d="M94.1343 129.209C94.1343 132.998 97.2297 136.064 101.038 136.064C104.856 136.064 107.94 132.998 107.94 129.209C107.94 125.42 104.845 122.354 101.038 122.354C97.2297 122.354 94.1343 125.42 94.1343 129.209Z" fill="white"/>
<path d="M106.505 130.116C106.566 129.026 106.281 127.824 105.761 126.866C104.692 124.849 102.483 124.055 100.304 124.248C99.3775 124.33 98.5834 124.982 98.5834 125.98C98.5834 126.846 99.3775 127.793 100.304 127.712C100.691 127.681 101.292 127.661 101.506 127.701C101.964 127.783 102.025 127.844 102.218 127.946C102.585 128.139 102.168 127.895 102.412 128.078C102.483 128.139 102.748 128.465 102.513 128.15C102.615 128.282 102.931 128.934 102.778 128.547C102.87 128.771 102.921 129.005 102.992 129.24C103.023 129.341 103.033 129.453 103.053 129.565C102.941 129.066 103.033 129.352 103.043 129.494C103.053 129.708 103.074 129.912 103.063 130.126C102.921 132.336 106.373 132.326 106.505 130.116Z" fill="#0B0B0B"/>
<path d="M287.231 219.975C265.412 224.019 266.794 241.026 266.794 241.026L275.306 244.61L374.772 246.402C351.13 215.121 309.051 215.931 287.231 219.975Z" fill="#3A9EDE"/>
<path d="M333.934 227.472L287.078 217.857C272.838 221.186 272.102 236.781 273.514 244.163H337.136L333.934 227.472Z" fill="#3A9EDE"/>
<path d="M279.136 243.607C279.136 248.078 282.761 251.705 287.231 251.705C291.701 251.705 295.325 248.078 295.325 243.607C295.325 239.135 291.701 235.509 287.231 235.509C282.761 235.509 279.136 239.125 279.136 243.607Z" fill="white"/>
<path d="M374.254 245.553H278.292C267.306 245.553 258.396 236.64 258.396 225.649V183.266C258.396 172.275 267.306 163.363 278.292 163.363H374.254C385.24 163.363 394.149 172.275 394.149 183.266V225.66C394.149 236.65 385.24 245.553 374.254 245.553Z" stroke="#A0A0A0" stroke-width="2.463" stroke-miterlimit="10"/>
<path d="M282.11 217.653C281.071 227.798 292.933 237.322 308.613 238.932C324.293 240.541 337.845 233.625 338.883 223.48C339.922 213.334 328.06 203.811 312.38 202.201C296.7 200.582 283.148 207.508 282.11 217.653Z" fill="#076CAD"/>
<path d="M295.448 192.453C295.448 196.548 298.797 199.869 302.921 199.869C307.044 199.869 310.394 196.548 310.394 192.453C310.394 188.359 307.044 185.038 302.921 185.038C298.787 185.038 295.448 188.359 295.448 192.453Z" stroke="#010101" stroke-width="4.63" stroke-miterlimit="10"/>
<path d="M327.998 169.443H318.611C312.37 169.443 307.268 175.26 307.268 182.369V196.925C307.268 197.332 307.289 197.74 307.32 198.137C307.218 198.565 307.156 199.013 307.156 199.471V208.333V208.822V217.684C307.156 220.903 309.783 223.531 313.001 223.531H316.727C319.945 223.531 322.572 220.903 322.572 217.684V209.841H327.998C334.24 209.841 339.341 204.025 339.341 196.925V182.369C339.341 175.26 334.24 169.443 327.998 169.443Z" fill="white"/>
<path d="M327.998 169.443H318.611C312.37 169.443 307.268 175.26 307.268 182.369V196.925C307.268 197.332 307.289 197.74 307.32 198.137C307.218 198.565 307.156 199.013 307.156 199.471V208.333V208.822V217.684C307.156 220.903 309.783 223.531 313.001 223.531H316.727C319.945 223.531 322.572 220.903 322.572 217.684V209.841H327.998C334.24 209.841 339.341 204.025 339.341 196.925V182.369C339.341 175.26 334.24 169.443 327.998 169.443Z" stroke="#8A8A8A" stroke-width="2.315" stroke-miterlimit="10"/>
<path d="M320.566 187.126C320.566 188.298 321.513 189.245 322.684 189.245C323.855 189.245 324.802 188.298 324.802 187.126C324.802 185.955 323.855 185.008 322.684 185.008C321.513 185.008 320.566 185.955 320.566 187.126Z" fill="#0D0E0E"/>
<path d="M334.413 186.81C334.413 187.809 335.218 188.613 336.215 188.613C337.213 188.613 338.018 187.809 338.018 186.81C338.018 185.812 337.213 185.008 336.215 185.008C335.218 185.008 334.413 185.812 334.413 186.81Z" fill="#0D0E0E"/>
<path d="M332.387 195.479C332.387 195.479 331.328 198.575 329.078 198.789C326.828 199.003 325.066 196.508 324.944 194.562L332.387 195.479Z" fill="#FEF7F7"/>
<path d="M331.124 195.122C330.87 195.845 330.33 196.783 329.627 197.22C327.988 198.249 326.431 195.988 326.268 194.562L324.954 195.876C327.439 196.182 329.913 196.487 332.397 196.783C334.077 196.986 334.057 194.348 332.397 194.155C329.913 193.849 327.439 193.543 324.954 193.248C324.303 193.167 323.569 193.92 323.641 194.562C323.956 197.414 326.227 200.561 329.434 200.052C331.562 199.716 332.987 197.73 333.659 195.825C334.23 194.226 331.684 193.533 331.124 195.122Z" fill="#0D0E0E"/>
<path d="M313.204 194.908C313.204 197.811 315.556 200.174 318.458 200.174C321.36 200.174 323.722 197.821 323.722 194.908C323.722 192.005 321.37 189.652 318.458 189.652C315.556 189.642 313.204 192.005 313.204 194.908Z" fill="#E4B0C8"/>
<path d="M337.936 191.343C338.252 191.343 338.568 191.384 338.863 191.455V196.915C338.863 197.73 338.832 198.514 338.669 199.288C338.445 199.329 338.17 199.36 337.936 199.36C335.727 199.36 333.934 197.567 333.934 195.357C333.924 193.136 335.727 191.343 337.936 191.343Z" fill="#E4B0C8"/>
<path d="M330.014 185.008L329.587 192.219L333.018 190.121L330.014 185.008Z" fill="#DB7395"/>
<path d="M309.722 192.219L311.453 180.821C311.453 180.821 342.986 184.773 353.198 169.454C363.421 154.134 352.679 148.063 347.486 148.939C342.293 149.805 336.215 157.251 336.215 157.251C336.215 157.251 341.051 150.671 336.215 149.632C331.379 148.593 326.033 153.615 323.254 158.82C323.254 158.82 302.473 156.884 295.447 169.464C288.422 182.043 294.113 190.966 306.963 203.963L307.818 196.691L309.722 192.219Z" fill="#130E43"/>
<path d="M295.448 192.453C295.448 196.548 298.797 199.869 302.921 199.869C307.044 199.869 310.394 196.548 310.394 192.453C310.394 188.359 307.044 185.038 302.921 185.038C298.787 185.038 295.448 188.359 295.448 192.453Z" fill="white"/>
<path d="M308.582 193.431C308.654 192.291 308.348 191.038 307.819 190.04C306.699 187.931 304.408 187.126 302.117 187.34C300.06 187.524 300.04 190.773 302.117 190.579C302.901 190.508 303.776 190.539 304.306 190.865C304.581 191.038 304.377 190.895 304.56 191.048C304.611 191.089 304.896 191.425 304.703 191.18C304.795 191.292 304.866 191.425 304.937 191.547C304.978 191.618 305.151 191.995 305.019 191.669C305.121 191.914 305.182 192.168 305.253 192.423C305.283 192.535 305.293 192.657 305.324 192.769C305.232 192.321 305.314 192.637 305.314 192.749C305.324 192.973 305.345 193.197 305.334 193.431C305.212 195.519 308.46 195.509 308.582 193.431Z" fill="#030303"/>
<path d="M323.254 158.809C323.254 158.809 302.473 180.281 293.869 186.821C293.869 186.821 282.669 162.018 289.023 155.102C294.124 149.54 318.998 152.8 323.254 158.809Z" fill="#EEDA37"/>
<path d="M323.254 158.809C323.254 158.809 302.473 180.281 293.869 186.821C293.869 186.821 282.669 162.018 289.023 155.102C294.124 149.54 318.998 152.8 323.254 158.809Z" stroke="#010101" stroke-width="2.315" stroke-miterlimit="10"/>
<path d="M316.381 154.766L291.059 179.741" stroke="#010101" stroke-width="2.315" stroke-miterlimit="10"/>
<path d="M329.027 212.184L332.417 224.763L306.77 232.892L305.446 227.636L295.977 222.003L299.897 211.389L311.117 220.118L311.86 220.73C311.86 220.73 312.268 221.422 314.345 220.281C316.422 219.13 329.027 212.184 329.027 212.184Z" fill="#076CAD"/>
<path d="M330.014 211.644L305.568 225.109L305.416 228.308" stroke="#8A8A8A" stroke-width="2.315" stroke-miterlimit="10"/>
<path d="M299.296 211.358L312.624 221.229" stroke="#8A8A8A" stroke-width="2.315" stroke-miterlimit="10"/>
<path d="M299.296 226.016C299.296 226.016 281.997 237.495 270.187 232.881" stroke="#8A8A8A" stroke-width="2.315" stroke-miterlimit="10"/>
<path d="M296.934 225.904C296.934 226.974 297.799 227.839 298.868 227.839C299.938 227.839 300.803 226.974 300.803 225.904C300.803 224.835 299.938 223.969 298.868 223.969C297.799 223.969 296.934 224.845 296.934 225.904Z" stroke="#010101" stroke-width="2.315" stroke-miterlimit="10"/>
<path d="M320.973 230.294C320.973 231.394 321.859 232.28 322.959 232.28C324.058 232.28 324.944 231.394 324.944 230.294C324.944 229.194 324.058 228.308 322.959 228.308C321.859 228.308 320.973 229.194 320.973 230.294Z" stroke="#010101" stroke-width="2.315" stroke-miterlimit="10"/>
<path d="M322.958 230.294C322.958 230.294 330.014 250.676 342.344 256.604" stroke="#8A8A8A" stroke-width="2.315" stroke-miterlimit="10"/>
<path d="M661.501 454.14H524.037C511.096 454.14 500.599 443.638 500.599 430.692V350.539C500.599 337.593 511.086 327.091 524.027 327.091H661.501C674.443 327.091 684.94 337.582 684.94 350.539V430.692C684.94 443.648 674.443 454.14 661.501 454.14Z" fill="#EDE4EB"/>
<path d="M649.293 431.333H536.235C523.294 431.333 512.797 420.832 512.797 407.885V357.944C512.797 344.998 523.294 334.496 536.235 334.496H649.293C662.234 334.496 672.732 344.998 672.732 357.944V407.896C672.732 420.832 662.244 431.333 649.293 431.333Z" fill="white"/>
<path d="M649.293 431.333H536.235C523.294 431.333 512.797 420.832 512.797 407.885V357.944C512.797 344.998 523.294 334.496 536.235 334.496H649.293C662.234 334.496 672.732 344.998 672.732 357.944V407.896C672.732 420.832 662.244 431.333 649.293 431.333Z" stroke="#010101" stroke-width="2.463" stroke-miterlimit="10"/>
<path d="M589.364 389.846C589.364 389.846 613.403 401.366 622.424 384.498C631.435 367.641 617.068 346.933 605.39 343.928C593.711 340.933 584.517 373.987 589.364 389.846Z" fill="#130E43"/>
<path d="M578.989 391.191C578.989 391.191 568.512 399.034 552.485 393.024C536.459 387.014 546.305 357.628 552.485 348.613C558.656 339.599 572.523 334.088 578.694 336.93C584.864 339.762 589.955 372.764 578.989 391.191Z" fill="#130E43"/>
<path d="M558.839 334.109C558.839 340.465 553.687 345.619 547.333 345.619C540.98 345.619 535.828 340.465 535.828 334.109C535.828 327.753 540.98 322.599 547.333 322.599C553.697 322.599 558.839 327.753 558.839 334.109Z" fill="#BEBEBE"/>
<path d="M614.798 366.918C614.798 366.918 610.929 358.086 607.67 358.636C604.412 359.187 605.329 364.911 605.777 368.028C606.225 371.145 607.732 375.097 604.311 378.743C600.89 382.39 617.801 376.941 614.798 366.918Z" fill="white"/>
<path d="M614.798 366.918C614.798 366.918 610.929 358.086 607.67 358.636C604.412 359.187 605.329 364.911 605.777 368.028C606.225 371.145 607.732 375.097 604.311 378.743C600.89 382.39 617.801 376.941 614.798 366.918Z" stroke="#010101" stroke-width="2.463" stroke-miterlimit="10"/>
<path d="M597.163 342.288H587.317C580.77 342.288 575.424 348.389 575.424 355.835V371.094C575.424 371.522 575.445 371.949 575.486 372.367C575.384 372.815 575.323 373.284 575.323 373.763V383.052V383.572V392.861C575.323 396.233 578.082 398.993 581.452 398.993H585.352C588.722 398.993 591.481 396.233 591.481 392.861V384.641H597.173C603.719 384.641 609.065 378.54 609.065 371.094V355.835C609.055 348.389 603.699 342.288 597.163 342.288Z" fill="white"/>
<path d="M597.163 342.288H587.317C580.77 342.288 575.424 348.389 575.424 355.835V371.094C575.424 371.522 575.445 371.949 575.486 372.367C575.384 372.815 575.323 373.284 575.323 373.763V383.052V383.572V392.861C575.323 396.233 578.082 398.993 581.452 398.993H585.352C588.722 398.993 591.481 396.233 591.481 392.861V384.641H597.173C603.719 384.641 609.065 378.54 609.065 371.094V355.835C609.055 348.389 603.699 342.288 597.163 342.288Z" stroke="#010101" stroke-width="2.463" stroke-miterlimit="10"/>
<path d="M581.657 368.985C581.657 372.031 584.12 374.506 587.175 374.506C590.219 374.506 592.693 372.031 592.693 368.985C592.693 365.94 590.219 363.465 587.175 363.465C584.12 363.465 581.657 365.94 581.657 368.985Z" fill="#E4B0C8"/>
<path d="M607.579 365.247C607.915 365.247 608.241 365.288 608.556 365.359V371.084C608.556 371.939 608.526 372.764 608.352 373.569C608.118 373.61 607.823 373.64 607.589 373.64C605.267 373.64 603.394 371.756 603.394 369.444C603.394 367.131 605.258 365.247 607.579 365.247Z" fill="#E4B0C8"/>
<path d="M589.363 360.826C589.363 362.049 590.361 363.047 591.583 363.047C592.805 363.047 593.802 362.049 593.802 360.826C593.802 359.604 592.805 358.606 591.583 358.606C590.351 358.606 589.363 359.594 589.363 360.826Z" fill="#0D0E0E"/>
<path d="M603.883 360.501C603.883 361.55 604.728 362.395 605.777 362.395C606.826 362.395 607.671 361.55 607.671 360.501C607.671 359.451 606.826 358.606 605.777 358.606C604.738 358.606 603.883 359.451 603.883 360.501Z" fill="#0D0E0E"/>
<path d="M602.101 370.696C602.101 370.696 600.981 373.946 598.629 374.17C596.267 374.394 594.424 371.776 594.301 369.739L602.101 370.696Z" fill="#FEF7F7"/>
<path d="M600.747 370.33C600.482 371.063 599.922 372.062 599.179 372.52C597.479 373.589 595.849 371.226 595.687 369.749C595.218 370.218 594.75 370.687 594.282 371.155C596.878 371.471 599.484 371.797 602.091 372.113C603.872 372.326 603.862 369.525 602.091 369.311C599.494 368.996 596.888 368.67 594.282 368.354C593.589 368.272 592.805 369.067 592.877 369.749C593.203 372.754 595.605 376.054 598.985 375.535C601.225 375.178 602.722 373.09 603.434 371.084C604.055 369.373 601.347 368.639 600.747 370.33Z" fill="#0D0E0E"/>
<path d="M599.281 358.606L598.823 366.164L602.427 363.964L599.281 358.606Z" fill="#DB7395"/>
<path d="M572.564 340.261C572.564 340.261 572.564 340.251 572.574 340.251C572.961 334.577 576.199 329.321 580.363 329.24C589.537 329.077 589.363 335.922 589.363 335.922C605.043 316.558 625.253 328.079 618.747 342.288C612.241 356.497 587.083 354.287 587.083 354.287C585.79 354.318 584.588 353.869 583.509 354.093C580.526 354.694 578.449 358.372 577.553 363.047C575.313 374.659 566.607 349.286 572.564 340.261Z" fill="#130E43"/>
<path d="M570.864 357.618C572.33 357.618 573.715 357.985 574.937 358.616V361.03C573.796 360.185 572.391 359.675 570.864 359.675C567.107 359.675 564.052 362.701 564.052 366.429C564.052 370.147 567.107 373.182 570.864 373.182C572.391 373.182 573.796 372.673 574.937 371.827V374.241C573.715 374.873 572.33 375.24 570.864 375.24C565.976 375.24 562.005 371.287 562.005 366.439C562.005 361.59 565.976 357.618 570.864 357.618Z" fill="#010101"/>
<path d="M563.023 366.408C563.023 370.707 566.526 374.18 570.853 374.18C575.18 374.18 578.693 370.697 578.693 366.408C578.693 362.12 575.18 358.636 570.853 358.636C566.526 358.636 563.023 362.12 563.023 366.408Z" fill="white"/>
<path d="M576.83 367.437C576.901 366.235 576.585 364.921 576.025 363.862C574.854 361.641 572.431 360.796 570.029 361.01C569.102 361.091 568.307 361.743 568.307 362.741C568.307 363.607 569.102 364.555 570.029 364.463C570.853 364.392 571.769 364.422 572.309 364.758C572.614 364.942 572.37 364.779 572.564 364.952C572.614 364.993 572.92 365.349 572.716 365.084C572.818 365.227 573.165 365.879 573.042 365.594C573.144 365.848 573.205 366.113 573.286 366.378C573.317 366.5 573.337 366.622 573.358 366.745C573.266 366.266 573.348 366.602 573.348 366.724C573.358 366.958 573.378 367.203 573.368 367.437C573.246 369.658 576.697 369.648 576.83 367.437Z" fill="#030303"/>
<path d="M532.483 430.549C538.521 383.286 565.987 389.561 593.742 399.614C615.826 407.62 639.188 410.971 642.426 430.549H532.483Z" fill="#E69B24"/>
<path d="M575.72 403.22H589.954C593.538 403.22 596.45 400.317 596.45 396.721V396.222C596.45 392.637 593.548 389.724 589.954 389.724H575.72C572.137 389.724 569.235 392.627 569.235 396.222V396.732C569.235 400.307 572.137 403.22 575.72 403.22Z" fill="#EEBF6C"/>
<path d="M593.742 390.406V402.538" stroke="#07060A" stroke-width="2.463" stroke-miterlimit="10"/>
<path d="M590.678 389.724V403.22" stroke="#07060A" stroke-width="2.463" stroke-miterlimit="10"/>
<path d="M587.46 389.724V403.22" stroke="#07060A" stroke-width="2.463" stroke-miterlimit="10"/>
<path d="M584.243 389.724V403.22" stroke="#07060A" stroke-width="2.463" stroke-miterlimit="10"/>
<path d="M581.015 389.724V403.22" stroke="#07060A" stroke-width="2.463" stroke-miterlimit="10"/>
<path d="M577.797 389.724V403.22" stroke="#07060A" stroke-width="2.463" stroke-miterlimit="10"/>
<path d="M574.58 389.724V403.22" stroke="#07060A" stroke-width="2.463" stroke-miterlimit="10"/>
<path d="M571.353 390.783V402.161" stroke="#07060A" stroke-width="2.463" stroke-miterlimit="10"/>
<path d="M538.76 361.57C540.196 360.612 541.662 366.602 542.396 370.584C542.131 367.305 541.846 361.988 543.078 361.611C544.391 361.203 545.725 366.979 546.356 370.513C546.092 367.233 545.776 361.713 546.937 361.611C548.433 361.488 549.543 366.561 550.185 370.513C549.808 367.07 549.614 362.864 550.796 362.629C552.832 362.222 553.443 364.666 554.461 370.36C555.479 376.054 557.098 379.925 564.826 383.174C571.586 386.026 579.589 390.121 587.073 414.934L565.243 415.973C565.213 415.341 565.182 414.71 565.141 414.088C563.624 390.895 550.602 391.71 544.421 387.035C538.251 382.349 535.96 363.434 538.76 361.57Z" fill="white"/>
<path d="M538.76 361.57C540.196 360.612 541.662 366.602 542.396 370.584C542.131 367.305 541.846 361.988 543.078 361.611C544.391 361.203 545.725 366.979 546.356 370.513C546.092 367.233 545.776 361.713 546.937 361.611C548.433 361.488 549.543 366.561 550.185 370.513C549.808 367.07 549.614 362.864 550.796 362.629C552.832 362.222 553.443 364.666 554.461 370.36C555.479 376.054 557.098 379.925 564.826 383.174C571.586 386.026 579.589 390.121 587.073 414.934L565.243 415.973C565.213 415.341 565.182 414.71 565.141 414.088C563.624 390.895 550.602 391.71 544.421 387.035C538.251 382.349 535.96 363.434 538.76 361.57Z" stroke="#07060A" stroke-width="2.463" stroke-miterlimit="10"/>
<path d="M588.621 420.393H565.315C565.335 418.275 565.285 416.166 565.142 414.088C565.04 412.54 564.888 411.114 564.684 409.77L585.057 408.781C586.269 412.153 587.45 415.983 588.621 420.393Z" fill="#EEBF6C"/>
<path d="M581.799 408.945L584.477 420.383" stroke="#07060A" stroke-width="2.463" stroke-miterlimit="10"/>
<path d="M577.543 409.148L578.989 420.383" stroke="#07060A" stroke-width="2.463" stroke-miterlimit="10"/>
<path d="M573.196 409.148L573.888 420.383" stroke="#07060A" stroke-width="2.463" stroke-miterlimit="10"/>
<path d="M569.235 409.545L569.611 420.088" stroke="#07060A" stroke-width="2.463" stroke-miterlimit="10"/>
<path d="M611.998 370.645C612.884 365.471 607.874 359.92 609.544 358.606C611.214 357.292 620.459 365.705 617.843 374.19C615.226 382.675 605.695 384.172 609.035 396.864C610.226 401.366 612.813 407.508 616.04 414.16L594.312 414.72C592.897 399.482 594.394 388.318 596.145 384.651C598.192 380.332 611.112 375.82 611.998 370.645Z" fill="white"/>
<path d="M611.998 370.645C612.884 365.471 607.874 359.92 609.544 358.606C611.214 357.292 620.459 365.705 617.843 374.19C615.226 382.675 605.695 384.172 609.035 396.864C610.226 401.366 612.813 407.508 616.04 414.16L594.312 414.72C592.897 399.482 594.394 388.318 596.145 384.651C598.192 380.332 611.112 375.82 611.998 370.645Z" stroke="#010101" stroke-width="2.463" stroke-miterlimit="10"/>
<path d="M594.903 420.047C594.384 416.105 594.058 412.387 593.895 408.945H613.596C615.093 412.286 616.835 415.851 618.698 419.477L594.903 420.047Z" fill="#EEBF6C"/>
<path d="M610.796 409.148L613.718 420.047" stroke="#010101" stroke-width="2.463" stroke-miterlimit="10"/>
<path d="M606.622 409.148L608.037 419.731" stroke="#010101" stroke-width="2.463" stroke-miterlimit="10"/>
<path d="M602.835 408.945L603.364 419.843" stroke="#010101" stroke-width="2.463" stroke-miterlimit="10"/>
<path d="M598.273 408.945L599.108 419.945" stroke="#010101" stroke-width="2.463" stroke-miterlimit="10"/>
<path d="M649.293 431.333H536.235C523.294 431.333 512.797 420.831 512.797 407.885V357.944C512.797 344.997 523.294 334.496 536.235 334.496H649.293C662.234 334.496 672.732 344.997 672.732 357.944V407.895C672.732 420.831 662.244 431.333 649.293 431.333Z" stroke="#A0A0A0" stroke-width="2.463" stroke-miterlimit="10"/>
<path d="M779.183 250.923H539.678C520.832 250.923 505.559 235.634 505.559 216.78V55.6287C505.559 36.7746 520.842 21.4856 539.678 21.4856H779.173C798.019 21.4856 813.302 36.7746 813.302 55.6287V216.78C813.312 235.634 798.03 250.923 779.183 250.923Z" fill="#EDE4EB"/>
<path d="M663.102 279.729H636.283C631.477 279.729 628.25 274.809 630.154 270.398L644.602 237.009L656.962 208.438C659.284 203.07 666.889 203.07 669.211 208.438L681.571 237.009L696.019 270.398C697.923 274.809 694.696 279.729 689.89 279.729H663.102Z" fill="#EDE4EB"/>
<path d="M784.325 207.467H539.617C530.973 207.467 523.958 200.449 523.958 191.801V54.3935C523.958 45.7456 530.973 38.7275 539.617 38.7275H784.325C792.969 38.7275 799.985 45.7354 799.985 54.3935V191.801C799.975 200.449 792.969 207.467 784.325 207.467Z" fill="white"/>
<path d="M784.325 207.467H539.617C530.973 207.467 523.958 200.449 523.958 191.801V54.3935C523.958 45.7456 530.973 38.7275 539.617 38.7275H784.325C792.969 38.7275 799.985 45.7354 799.985 54.3935V191.801C799.975 200.449 792.969 207.467 784.325 207.467Z" stroke="#010101" stroke-width="2.463" stroke-miterlimit="10"/>
<path d="M575.62 187.289H696.732C715.354 187.289 730.454 172.183 730.454 153.563V78.6562C730.454 60.0262 715.354 44.9307 696.732 44.9307H575.62C556.997 44.9307 541.908 60.0364 541.908 78.6562V153.574C541.908 172.183 556.997 187.289 575.62 187.289Z" fill="white"/>
<path d="M575.62 187.289H696.732C715.354 187.289 730.454 172.183 730.454 153.563V78.6562C730.454 60.0262 715.354 44.9307 696.732 44.9307H575.62C556.997 44.9307 541.908 60.0364 541.908 78.6562V153.574C541.908 172.183 556.997 187.289 575.62 187.289Z" stroke="#A0A0A0" stroke-width="2.463" stroke-miterlimit="10"/>
<path d="M560.307 57.9382C560.307 59.7208 558.881 61.157 557.12 61.157C555.358 61.157 553.933 59.7106 553.933 57.9382C553.933 56.1557 555.358 54.7195 557.12 54.7195C558.881 54.7195 560.307 56.1659 560.307 57.9382Z" fill="#DB7395"/>
<path d="M560.307 57.9382C560.307 59.7208 558.881 61.157 557.12 61.157C555.358 61.157 553.933 59.7106 553.933 57.9382C553.933 56.1557 555.358 54.7195 557.12 54.7195C558.881 54.7195 560.307 56.1659 560.307 57.9382Z" stroke="#CBCBCB" stroke-width="2.463" stroke-miterlimit="10"/>
<path d="M573.003 57.9382C573.003 59.7208 571.578 61.157 569.816 61.157C568.055 61.157 566.629 59.7106 566.629 57.9382C566.629 56.1557 568.055 54.7195 569.816 54.7195C571.578 54.7195 573.003 56.1659 573.003 57.9382Z" fill="#EEDA37"/>
<path d="M573.003 57.9382C573.003 59.7208 571.578 61.157 569.816 61.157C568.055 61.157 566.629 59.7106 566.629 57.9382C566.629 56.1557 568.055 54.7195 569.816 54.7195C571.578 54.7195 573.003 56.1659 573.003 57.9382Z" stroke="#CBCBCB" stroke-width="2.463" stroke-miterlimit="10"/>
<path d="M585.7 57.9382C585.7 59.7208 584.274 61.157 582.513 61.157C580.752 61.157 579.326 59.7106 579.326 57.9382C579.326 56.1557 580.752 54.7195 582.513 54.7195C584.274 54.7195 585.7 56.1659 585.7 57.9382Z" fill="#634FA1"/>
<path d="M585.7 57.9382C585.7 59.7208 584.274 61.157 582.513 61.157C580.752 61.157 579.326 59.7106 579.326 57.9382C579.326 56.1557 580.752 54.7195 582.513 54.7195C584.274 54.7195 585.7 56.1659 585.7 57.9382Z" stroke="#CBCBCB" stroke-width="2.463" stroke-miterlimit="10"/>
<path d="M542.336 69.2446H730.443" stroke="#A0A0A0" stroke-width="2.463" stroke-miterlimit="10"/>
<path d="M643.023 106.413V80.7139C628.84 80.7139 617.335 92.2138 617.335 106.413C617.335 120.602 628.83 132.112 643.023 132.112C657.216 132.112 668.712 120.612 668.712 106.413C668.712 104.549 668.498 102.746 668.131 100.994L643.023 106.413Z" fill="#8CD8E9"/>
<path d="M671.288 96.4816C668.803 84.89 658.509 76.2014 646.189 76.2014V101.9L671.288 96.4816Z" fill="#E4B0C8"/>
<path d="M594.721 82.2215H563.932C562.74 82.2215 561.763 81.2538 561.763 80.0519C561.763 78.8602 562.73 77.8823 563.932 77.8823H594.721C595.913 77.8823 596.89 78.85 596.89 80.0519C596.88 81.2538 595.913 82.2215 594.721 82.2215Z" stroke="#9988C0" stroke-width="2.463" stroke-miterlimit="10"/>
<path d="M563.983 85.4402H593.785" stroke="#9988C0" stroke-width="2.463" stroke-miterlimit="10"/>
<path d="M563.983 89.4331H593.785" stroke="#9988C0" stroke-width="2.463" stroke-miterlimit="10"/>
<path d="M563.983 93.4158H593.785" stroke="#9988C0" stroke-width="2.463" stroke-miterlimit="10"/>
<path d="M599.099 80.7444H610.35L626.549 95.5852" stroke="#9988C0" stroke-width="2.463" stroke-miterlimit="10"/>
<path d="M717.584 84.7374H686.794C685.603 84.7374 684.636 83.7697 684.636 82.5678C684.636 81.376 685.603 80.3982 686.794 80.3982H717.584C718.775 80.3982 719.753 81.3658 719.753 82.5678C719.742 83.7697 718.775 84.7374 717.584 84.7374Z" stroke="#9988C0" stroke-width="2.463" stroke-miterlimit="10"/>
<path d="M686.845 87.9561H716.647" stroke="#9988C0" stroke-width="2.463" stroke-miterlimit="10"/>
<path d="M686.845 91.9387H716.647" stroke="#9988C0" stroke-width="2.463" stroke-miterlimit="10"/>
<path d="M686.845 95.9214H716.647" stroke="#9988C0" stroke-width="2.463" stroke-miterlimit="10"/>
<path d="M686.845 100.057H716.647" stroke="#9988C0" stroke-width="2.463" stroke-miterlimit="10"/>
<path d="M686.845 104.04H716.647" stroke="#9988C0" stroke-width="2.463" stroke-miterlimit="10"/>
<path d="M686.845 108.032H716.647" stroke="#9988C0" stroke-width="2.463" stroke-miterlimit="10"/>
<path d="M661.798 92.6517L672.673 83.739H682.325" stroke="#9988C0" stroke-width="2.463" stroke-miterlimit="10"/>
<path d="M566.222 116.629V167.121H642.625" stroke="#9988C0" stroke-width="2.463" stroke-miterlimit="10"/>
<path d="M566.222 116.915H563.494L564.858 114.552L566.222 112.188L567.587 114.552L568.951 116.915H566.222Z" fill="#9988C0"/>
<path d="M641.811 167.121V164.401L644.164 165.756L646.526 167.121L644.164 168.486L641.811 169.851V167.121Z" fill="#9988C0"/>
<path d="M559.899 162.955L578.481 146.209L593.764 162.649L613.038 127.325L627.14 161.794" stroke="#EEDA37" stroke-width="2.463" stroke-miterlimit="10"/>
<path d="M553.526 138.04C553.526 138.04 554.992 136.523 557.232 134.669" stroke="#DB7395" stroke-width="2.463" stroke-miterlimit="10"/>
<path d="M566.294 129.026C569.664 127.742 573.085 127.579 575.661 130.065C583.175 137.297 581.393 142.868 596.472 139.619C609.546 136.808 625.378 140.179 631.772 159.726" stroke="#DB7395" stroke-width="2.463" stroke-miterlimit="10" stroke-dasharray="10.52 10.52"/>
<path d="M633.157 164.9C633.493 166.469 633.768 168.119 634.002 169.851" stroke="#DB7395" stroke-width="2.463" stroke-miterlimit="10"/>
<path d="M652.91 125.084C652.91 125.084 645.009 120.011 645.987 117.587C646.964 115.163 649.265 116.528 649.265 116.528C649.265 116.528 646.913 115.081 648.003 113.482C649.092 111.883 650.568 112.474 650.568 112.474C650.568 112.474 648.899 110.029 650.507 109.112C652.116 108.206 654.529 108.786 654.529 108.786C654.529 108.786 653.602 106.749 653.643 106.036C653.684 105.323 654.732 103.734 658.092 104.519C661.462 105.303 668.661 109.306 671.094 110.549C673.518 111.781 676.267 114.654 676.338 113.727C676.419 112.8 677.458 106.871 679.759 105.15C682.06 103.418 682.977 103.143 683.384 106.434C683.791 109.724 683.679 118.881 688.128 125.624C692.578 132.367 694.105 136.869 698.799 142.339C703.503 147.809 705.661 150.559 705.661 150.559L684.473 167.814C684.473 167.814 663.906 136.859 663.764 136.645C663.631 136.421 656.952 128.231 652.91 125.084Z" fill="white"/>
<path d="M648.572 116.355C648.572 116.355 645.945 112.066 650.863 112.586C655.791 113.105 662.47 117.669 665.687 120.083" stroke="#8A8A8A" stroke-width="2.463" stroke-miterlimit="10"/>
<path d="M671.053 129.801C671.053 129.801 669.251 124.29 677.101 122.008C677.101 122.008 674.108 110.315 679.779 105.13C685.45 99.9456 682.365 113.31 686.153 121.448C689.94 129.587 694.237 137.44 698.269 141.728C702.301 146.016 705.793 150.682 705.793 150.682L684.361 167.896C684.361 167.896 677.04 156.763 665.738 139.487C654.447 122.212 644.469 121.825 645.986 117.588C647.849 112.372 661.167 124.657 661.167 124.657" stroke="#8A8A8A" stroke-width="2.463" stroke-miterlimit="10"/>
<path d="M650.863 112.586C650.863 112.586 648.328 109.469 651.546 108.644C652.075 108.511 652.747 108.501 653.521 108.603C657.4 109.102 663.844 112.362 668.548 115.998" stroke="#8A8A8A" stroke-width="2.463" stroke-miterlimit="10"/>
<path d="M676.389 114.592C676.389 114.592 667.164 105.985 656.646 104.559C652.838 104.04 653.001 107.839 656.738 109.418" stroke="#8A8A8A" stroke-width="2.463" stroke-miterlimit="10"/>
<path d="M721.117 161.376C718.134 159.37 715.09 156.742 712.168 153.91C702.689 144.692 694.584 133.202 694.584 133.202L671.288 153.166C671.288 153.166 696.701 192.627 711.964 197.557C727.226 202.487 762.109 162.792 762.109 162.792L764.858 110.579C764.858 110.579 758.29 114.103 753.037 118.86C744.392 126.673 729.293 140.617 712.178 153.91" fill="#CF98D9"/>
<path d="M702.189 143.001C697.638 137.531 694.583 133.202 694.583 133.202L671.288 153.166C671.288 153.166 674.241 157.75 678.741 163.984L702.189 143.001Z" fill="white"/>
<path d="M702.189 143.001C697.638 137.531 694.583 133.202 694.583 133.202L671.288 153.166C671.288 153.166 674.241 157.75 678.741 163.984L702.189 143.001Z" stroke="#8A8A8A" stroke-width="2.463" stroke-miterlimit="10"/>
<path d="M696.467 140.77C696.467 141.646 695.754 142.359 694.878 142.359C694.003 142.359 693.3 141.646 693.3 140.77C693.3 139.894 694.013 139.181 694.878 139.181C695.754 139.191 696.467 139.894 696.467 140.77Z" fill="white"/>
<path d="M696.467 140.77C696.467 141.646 695.754 142.359 694.878 142.359C694.003 142.359 693.3 141.646 693.3 140.77C693.3 139.894 694.013 139.181 694.878 139.181C695.754 139.191 696.467 139.894 696.467 140.77Z" stroke="#8A8A8A" stroke-width="2.463" stroke-miterlimit="10"/>
<path d="M791.457 207.241C759.253 213.889 791.457 206.803 791.457 207.241C810.27 194.43 796.829 94.0684 787.42 104.373C760.448 104.373 738.578 146.054 738.578 197.483C738.578 197.921 738.578 206.813 738.578 207.241H791.457Z" fill="#CF98D9"/>
<path d="M779.132 130.105V209.637" stroke="#8A8A8A" stroke-width="2.463" stroke-miterlimit="10"/>
<path d="M779.296 130.941L798.132 113.951C792.338 109.326 785.975 106.77 779.296 106.77C772.84 106.77 766.1 109.611 760.459 113.951L779.296 130.941Z" fill="white"/>
<path d="M779.296 130.941L798.132 113.951C792.338 109.326 785.975 106.77 779.296 106.77C772.84 106.77 766.1 109.611 760.459 113.951L779.296 130.941Z" stroke="#010101" stroke-width="2.463" stroke-miterlimit="10"/>
<path d="M798.132 113.94C792.338 109.316 785.974 106.77 779.295 106.77C772.636 106.77 766.303 109.306 760.52 113.9" stroke="#010101" stroke-width="2.463" stroke-miterlimit="10"/>
<path d="M784.325 207.467H539.617C530.973 207.467 523.958 200.449 523.958 191.802V54.3937C523.958 45.7459 530.973 38.7278 539.617 38.7278H784.325C792.97 38.7278 799.985 45.7357 799.985 54.3937V191.802C799.975 200.449 792.97 207.467 784.325 207.467Z" stroke="#A0A0A0" stroke-width="2.463" stroke-miterlimit="10"/>
<path d="M798.681 118.983L788.286 103.368C786.249 100.312 782.431 99.1709 779.132 100.403C775.833 99.1709 772.015 100.312 769.979 103.368L759.584 118.983C757.211 122.548 758.179 127.366 761.742 129.739L763.229 130.727C766.792 133.1 771.608 132.133 773.981 128.567L779.132 120.826L784.284 128.567C786.656 132.133 791.472 133.1 795.036 130.727L796.522 129.739C800.086 127.366 801.053 122.548 798.681 118.983Z" fill="white"/>
<path d="M798.681 118.983L788.286 103.368C786.249 100.312 782.431 99.1709 779.132 100.403C775.833 99.1709 772.015 100.312 769.979 103.368L759.584 118.983C757.211 122.548 758.179 127.366 761.742 129.739L763.229 130.727C766.792 133.1 771.608 132.133 773.981 128.567L779.132 120.826L784.284 128.567C786.656 132.133 791.472 133.1 795.036 130.727L796.522 129.739C800.086 127.366 801.053 122.548 798.681 118.983Z" stroke="black" stroke-width="2.463" stroke-miterlimit="10"/>
<path d="M780.802 117.139C780.802 117.974 780.13 118.646 779.295 118.646C778.46 118.646 777.788 117.974 777.788 117.139C777.788 116.304 778.46 115.631 779.295 115.631C780.12 115.631 780.802 116.304 780.802 117.139Z" fill="white"/>
<path d="M780.802 117.139C780.802 117.974 780.13 118.646 779.295 118.646C778.46 118.646 777.788 117.974 777.788 117.139C777.788 116.304 778.46 115.631 779.295 115.631C780.12 115.631 780.802 116.304 780.802 117.139Z" stroke="black" stroke-width="2.463" stroke-miterlimit="10"/>
<path d="M799.791 80.2454C799.791 84.6865 796.167 88.2821 791.687 88.2821C787.207 88.2821 783.582 84.6763 783.582 80.2454C783.582 75.8044 787.207 72.2087 791.687 72.2087C796.157 72.2087 799.791 75.8044 799.791 80.2454Z" stroke="black" stroke-width="4.925" stroke-miterlimit="10"/>
<path d="M764.492 55.3003H774.673C781.444 55.3003 786.973 61.6054 786.973 69.3161V85.0941C786.973 85.5422 786.953 85.9802 786.912 86.408C787.024 86.8766 787.085 87.3553 787.085 87.8544V97.4597V97.9996V107.605C787.085 111.088 784.234 113.941 780.752 113.941H776.71C773.228 113.941 770.377 111.088 770.377 107.605V99.0997H764.492C757.721 99.0997 752.192 92.7946 752.192 85.0839V69.3059C752.192 61.6054 757.721 55.3003 764.492 55.3003Z" fill="white"/>
<path d="M764.492 55.3003H774.673C781.444 55.3003 786.973 61.6054 786.973 69.3161V85.0941C786.973 85.5422 786.953 85.9802 786.912 86.408C787.024 86.8766 787.085 87.3553 787.085 87.8544V97.4597V97.9996V107.605C787.085 111.088 784.234 113.941 780.752 113.941H776.71C773.228 113.941 770.377 111.088 770.377 107.605V99.0997H764.492C757.721 99.0997 752.192 92.7946 752.192 85.0839V69.3059C752.192 61.6054 757.721 55.3003 764.492 55.3003Z" stroke="black" stroke-width="2.463" stroke-miterlimit="10"/>
<path d="M784.305 79.9909L782.421 67.6252C782.421 67.6252 748.231 71.9135 737.153 55.3003C726.075 38.687 737.724 32.1069 743.354 33.044C748.985 33.9811 755.582 42.0586 755.582 42.0586C755.582 42.0586 750.338 34.9182 755.582 33.7876C760.826 32.657 766.619 38.1064 769.643 43.7494C769.643 43.7494 792.175 41.6409 799.791 55.2901C807.407 68.929 801.237 78.6056 787.298 92.7029L786.361 84.819L784.305 79.9909Z" fill="#130E43"/>
<path d="M823.515 40.3269C823.515 48.3228 817.029 54.8112 809.037 54.8112C801.044 54.8112 794.559 48.3228 794.559 40.3269C794.559 32.331 801.044 25.8425 809.037 25.8425C817.029 25.8425 823.515 32.3208 823.515 40.3269Z" fill="#130E43"/>
<path d="M781.24 82.4151C781.24 85.644 778.624 88.2618 775.396 88.2618C772.169 88.2618 769.552 85.644 769.552 82.4151C769.552 79.1861 772.169 76.5684 775.396 76.5684C778.624 76.5684 781.24 79.1861 781.24 82.4151Z" fill="#E4B0C8"/>
<path d="M753.76 77.7397C753.403 77.7397 753.057 77.7907 752.732 77.862V83.9226C752.732 84.8291 752.64 85.7153 752.823 86.5607C753.067 86.6015 753.516 86.632 753.77 86.632C756.224 86.632 758.22 84.6356 758.22 82.1808C758.209 79.7362 756.213 77.7397 753.76 77.7397Z" fill="#E4B0C8"/>
<path d="M770.692 74.2561C770.692 75.4071 769.765 76.3341 768.615 76.3341C767.464 76.3341 766.538 75.4071 766.538 74.2561C766.538 73.1051 767.464 72.1782 768.615 72.1782C769.765 72.1782 770.692 73.1051 770.692 74.2561Z" fill="#161616"/>
<path d="M757.079 73.9506C757.079 74.9284 756.285 75.7229 755.307 75.7229C754.33 75.7229 753.536 74.9284 753.536 73.9506C753.536 72.9727 754.33 72.1782 755.307 72.1782C756.285 72.1782 757.079 72.9625 757.079 73.9506Z" fill="#161616"/>
<path d="M759.064 82.4559C759.064 82.4559 760.103 85.5015 762.313 85.7052C764.522 85.9191 766.253 83.4643 766.375 81.5596L759.064 82.4559Z" fill="#F7F6F6"/>
<path d="M757.72 82.8224C758.402 84.7374 759.818 86.7135 761.946 87.0496C765.173 87.5589 767.464 84.4216 767.78 81.5492C767.851 80.8566 767.077 80.0621 766.375 80.1537C763.941 80.4491 761.498 80.7547 759.064 81.0501C757.303 81.264 757.282 84.0651 759.064 83.8512C761.498 83.5558 763.941 83.2503 766.375 82.9549L764.97 81.5492C764.817 82.9243 763.381 84.9717 761.834 84.0753C761.162 83.6883 760.612 82.6493 760.408 82.0789C759.818 80.3982 757.109 81.1214 757.72 82.8224Z" fill="#161616"/>
<path d="M779.132 73.0338C779.132 77.5156 775.884 81.1519 771.873 81.1519C767.861 81.1519 764.613 77.5156 764.613 73.0338C764.613 68.552 767.861 64.9258 771.873 64.9258C775.884 64.9258 779.132 68.552 779.132 73.0338Z" stroke="#634FA1" stroke-width="2.463" stroke-miterlimit="10"/>
<path d="M759.767 72.0153C759.767 76.0184 757.089 79.2677 753.79 79.2677C750.492 79.2677 747.814 76.0184 747.814 72.0153C747.814 68.0122 750.492 64.7629 753.79 64.7629C757.099 64.7629 759.767 68.0122 759.767 72.0153Z" stroke="#634FA1" stroke-width="2.463" stroke-miterlimit="10"/>
<path d="M762.098 72.2087V79.2574L758.413 77.0063L762.098 72.2087Z" fill="#DA6981"/>
<path d="M759.584 74.1848C759.584 74.1848 762.506 72.9625 764.624 74.7145" stroke="#634FA1" stroke-width="2.463" stroke-miterlimit="10"/>
<path d="M799.791 80.2454C799.791 84.6865 796.167 88.2821 791.687 88.2821C787.207 88.2821 783.582 84.6763 783.582 80.2454C783.582 75.8044 787.207 72.2087 791.687 72.2087C796.157 72.2087 799.791 75.8044 799.791 80.2454Z" fill="white"/>
<path d="M789.029 81.3047C789.019 81.0705 789.04 80.8464 789.05 80.6121C789.05 80.4899 789.141 80.0926 789.05 80.5714C789.07 80.4491 789.09 80.3167 789.121 80.1945C789.192 79.9195 789.263 79.6444 789.375 79.3796C789.253 79.6648 789.61 78.9722 789.722 78.8397C789.63 78.962 790.037 78.5647 790.088 78.5342C790.709 78.1064 791.677 78.0962 792.562 78.1777C794.772 78.3814 794.762 74.9284 792.562 74.7246C790.099 74.5006 787.614 75.3664 786.413 77.6378C785.843 78.7277 785.517 80.0723 785.588 81.3047C785.71 83.5151 789.162 83.5355 789.029 81.3047Z" fill="#8A8A8A"/>
<path d="M650.191 2.11963H700.336C706.74 2.11963 711.933 7.31444 711.933 13.7214V34.2052V41.3659V63.8055L700.143 52.9677H650.191C643.787 52.9677 638.594 47.7728 638.594 41.3659V13.7214C638.594 7.31444 643.787 2.11963 650.191 2.11963Z" fill="white"/>
<path d="M650.191 2.11963H700.336C706.74 2.11963 711.933 7.31444 711.933 13.7214V34.2052V41.3659V63.8055L700.143 52.9677H650.191C643.787 52.9677 638.594 47.7728 638.594 41.3659V13.7214C638.594 7.31444 643.787 2.11963 650.191 2.11963Z" stroke="#CBCBCB" stroke-width="2.463" stroke-miterlimit="10"/>
<path d="M674.403 41.4269C677.112 41.4269 679.006 39.5323 679.006 37.1896C679.006 34.8061 677.112 33.0337 674.403 33.0337C671.705 33.0337 669.842 34.8061 669.842 37.1896C669.842 39.5323 671.695 41.4269 674.403 41.4269ZM670.809 30.7826H677.987C677.987 27.075 684.606 26.1378 684.606 19.8531C684.606 14.9334 680.166 12.2646 673.955 12.2646C668.03 12.2646 664.11 14.6482 661.982 18.2336L667.989 21.4625C669.038 19.6494 670.85 18.5595 673.029 18.5595C675.085 18.5595 676.572 19.5272 676.572 21.1366C676.582 24.1618 670.809 25.4961 670.809 30.7826Z" stroke="#FF4918" stroke-width="2.463"/>
<path d="M453.233 106.138H386.645C378.133 106.138 371.24 113.034 371.24 121.549V148.746V158.259V188.063L386.9 173.681H453.233C461.735 173.681 468.638 166.785 468.638 158.269V121.559C468.638 113.034 461.735 106.138 453.233 106.138Z" fill="white"/>
<path d="M453.233 106.138H386.645C378.133 106.138 371.24 113.034 371.24 121.549V148.746V158.259V188.063L386.9 173.681H453.233C461.735 173.681 468.638 166.785 468.638 158.269V121.559C468.638 113.034 461.735 106.138 453.233 106.138Z" stroke="#CBCBCB" stroke-width="2.834" stroke-miterlimit="10"/>
<path d="M404.697 141.127C404.697 144.824 401.704 147.829 397.998 147.829C394.302 147.829 391.299 144.834 391.299 141.127C391.299 137.429 394.302 134.424 397.998 134.424C401.694 134.424 404.697 137.429 404.697 141.127Z" fill="white"/>
<path d="M404.697 141.127C404.697 144.824 401.704 147.829 397.998 147.829C394.302 147.829 391.299 144.834 391.299 141.127C391.299 137.429 394.302 134.424 397.998 134.424C401.694 134.424 404.697 137.429 404.697 141.127Z" stroke="#FF4918" stroke-width="2.834" stroke-miterlimit="10"/>
<path d="M427.993 141.127C427.993 144.824 424.99 147.829 421.294 147.829C417.598 147.829 414.594 144.834 414.594 141.127C414.594 137.429 417.587 134.424 421.294 134.424C424.99 134.424 427.993 137.429 427.993 141.127Z" fill="white"/>
<path d="M427.993 141.127C427.993 144.824 424.99 147.829 421.294 147.829C417.598 147.829 414.594 144.834 414.594 141.127C414.594 137.429 417.587 134.424 421.294 134.424C424.99 134.424 427.993 137.429 427.993 141.127Z" stroke="#FF4918" stroke-width="2.834" stroke-miterlimit="10"/>
<path d="M451.289 141.127C451.289 144.824 448.296 147.829 444.589 147.829C440.894 147.829 437.89 144.834 437.89 141.127C437.89 137.429 440.894 134.424 444.589 134.424C448.296 134.424 451.289 137.429 451.289 141.127Z" fill="white"/>
<path d="M451.289 141.127C451.289 144.824 448.296 147.829 444.589 147.829C440.894 147.829 437.89 144.834 437.89 141.127C437.89 137.429 440.894 134.424 444.589 134.424C448.296 134.424 451.289 137.429 451.289 141.127Z" stroke="#FF4918" stroke-width="2.834" stroke-miterlimit="10"/>
<path d="M472.416 84.1978H405.828C397.316 84.1978 390.423 91.0936 390.423 99.609V126.805V136.319V166.123L406.093 151.73H472.426C480.928 151.73 487.831 144.834 487.831 136.319V99.609C487.821 91.0936 480.928 84.1978 472.416 84.1978Z" fill="white"/>
<path d="M471.999 84.1978H405.411C396.899 84.1978 390.005 91.0936 390.005 99.609V126.805V136.319V166.123L405.675 151.73H472.009C480.51 151.73 487.414 144.834 487.414 136.319V99.609C487.403 91.0936 480.511 84.1978 471.999 84.1978Z" stroke="#CBCBCB" stroke-width="2.834" stroke-miterlimit="10"/>
<path d="M271.164 27.9917H196.247C186.676 27.9917 178.917 35.7534 178.917 45.3281V75.9266V86.632V120.154L196.542 103.968H271.175C280.745 103.968 288.504 96.2067 288.504 86.632V45.3281C288.494 35.7534 280.735 27.9917 271.164 27.9917Z" fill="white"/>
<path d="M271.247 27.9917H196.329C186.759 27.9917 179 35.7534 179 45.3281V75.9266V86.632V120.154L196.625 103.968H271.257C280.828 103.968 288.586 96.2067 288.586 86.632V45.3281C288.576 35.7534 280.817 27.9917 271.247 27.9917Z" stroke="#CBCBCB" stroke-width="3.456" stroke-miterlimit="10"/>
<path d="M748.178 278.219H675.745C666.49 278.219 658.986 285.726 658.986 294.985V324.565V334.913V367.325L676.02 351.68H748.168C757.424 351.68 764.927 344.172 764.927 334.913V294.985C764.938 285.726 757.433 278.219 748.178 278.219Z" fill="white"/>
<path d="M748.193 278.219H675.759C666.504 278.219 659 285.726 659 294.985V324.565V334.913V367.325L676.034 351.68H748.183C757.438 351.68 764.942 344.172 764.942 334.913V294.985C764.952 285.726 757.448 278.219 748.193 278.219Z" stroke="#CBCBCB" stroke-width="3.341" stroke-miterlimit="10"/>
<path d="M319.192 284.33H246.759C237.504 284.33 230 291.837 230 301.096V330.676V341.025V373.437L247.034 357.791H319.182C328.437 357.791 335.941 350.284 335.941 341.025V301.096C335.951 291.837 328.447 284.33 319.192 284.33Z" fill="white"/>
<path d="M317.902 284.33H245.469C236.214 284.33 228.71 291.837 228.71 301.096V330.676V341.025V373.437L245.744 357.791H317.892C327.147 357.791 334.651 350.284 334.651 341.025V301.096C334.661 291.837 327.157 284.33 317.902 284.33Z" stroke="#CBCBCB" stroke-width="3.341" stroke-miterlimit="10"/>
<path d="M84.9305 258.132C83.7189 251.358 79.9008 246.917 75.6142 244.126C68.375 239.4 58.7533 239.4 51.514 244.126C47.2376 246.917 43.4094 251.358 42.1977 258.132C39.9577 270.64 50.9743 277.373 53.0413 279.889C53.0413 279.889 54.4359 281.05 55.1079 282.415C55.281 282.762 55.4542 283.831 55.6578 285.278H63.5691H71.4704C71.6741 283.831 71.8574 282.762 72.0203 282.415C72.6923 281.05 74.087 279.889 74.087 279.889C76.1539 277.373 87.1705 270.64 84.9305 258.132Z" fill="#F3DA0B"/>
<path d="M84.9305 258.132C83.7189 251.358 79.9008 246.917 75.6142 244.126C68.375 239.4 58.7532 239.4 51.514 244.126C47.2376 246.917 43.4094 251.358 42.1977 258.132C39.9577 270.64 50.9743 277.373 53.0413 279.889C53.0413 279.889 54.4359 281.05 55.1079 282.415C55.281 282.762 55.4542 283.831 55.6578 285.278H63.5691H71.4704C71.6741 283.831 71.8574 282.762 72.0203 282.415C72.6923 281.05 74.087 279.889 74.087 279.889C76.1539 277.373 87.1705 270.64 84.9305 258.132Z" stroke="#FF7E5B" stroke-width="2.463" stroke-miterlimit="10"/>
<path d="M60.2597 286.622C60.2597 286.622 60.2601 274.756 59.3946 273.065C58.5292 271.374 54.5374 265.446 53.8552 264.193C53.173 262.94 54.5682 261.494 55.6271 263.337C56.5333 264.916 60.4229 270.325 61.2884 272.545C62.1538 274.756 62.8972 287.213 62.8972 287.213L60.2597 286.622Z" fill="white"/>
<path d="M66.8266 286.622C66.8266 286.622 66.8267 274.756 67.6921 273.065C68.5576 271.374 72.5487 265.446 73.2309 264.193C73.913 262.94 72.5179 261.494 71.459 263.337C70.5427 264.916 66.6634 270.325 65.798 272.545C64.9325 274.756 64.1897 287.213 64.1897 287.213L66.8266 286.622Z" fill="white"/>
<path d="M72.5695 263.785C70.971 264.539 68.232 264.631 66.216 264.02C66.1957 264.03 66.1755 264.05 66.1653 264.06C64.5058 265.293 62.1841 264.824 60.4736 263.571C58.3558 264.397 55.4341 264.498 54.9861 264.509L54.9757 263.378C56.2586 263.347 58.0914 263.144 59.5066 262.716C58.3256 261.443 58.0814 260.057 58.8653 259.12C59.8529 257.928 61.1154 258.01 61.8994 258.611C62.8564 259.334 63.3042 260.882 62.4184 262.207C62.2249 262.502 61.9401 262.757 61.6245 262.981C62.6935 263.612 63.9558 263.887 64.9637 263.49C64.6074 263.286 64.312 263.042 64.0982 262.767C63.7521 262.329 63.3042 261.422 64.1798 260.21C64.7601 259.395 65.5342 259.029 66.2876 259.181C67.0105 259.334 67.5806 259.976 67.7333 260.801C67.8758 261.575 67.6518 262.39 67.1223 263.103C68.7615 263.459 70.869 263.398 72.1723 262.797L72.5695 263.785ZM65.4524 260.444C65.3201 260.546 65.1876 260.679 65.0552 260.862C64.6174 261.473 64.7805 261.819 64.9637 262.054C65.1776 262.329 65.5441 262.573 66.0023 262.767C66.5215 262.227 66.7658 261.616 66.664 261.056C66.5825 260.658 66.3385 260.353 66.0331 260.292C65.8498 260.241 65.6459 260.302 65.4524 260.444ZM60.657 262.268C61.0337 262.074 61.3186 261.85 61.4917 261.595C62.011 260.821 61.7564 259.935 61.2168 259.528C60.7485 259.171 60.1987 259.283 59.7304 259.854C59.262 260.414 59.7816 261.361 60.3722 261.993C60.4638 262.084 60.5654 262.176 60.657 262.268Z" fill="white"/>
<path d="M63.5385 284.004C59.2418 284.004 55.5663 282.884 54.9452 282.538C54.9961 282.619 55.0471 282.711 55.0879 282.792C55.6682 283.974 56.3805 293.813 57.9281 297.613C58.203 298.285 58.4987 298.764 58.8245 298.978C59.7103 299.558 61.563 300.169 63.5281 300.078C65.4931 300.169 67.3463 299.558 68.2322 298.978C68.558 298.764 68.8633 298.285 69.128 297.613C70.6756 293.813 71.3884 283.974 71.9688 282.792C72.0095 282.701 72.0707 282.619 72.1115 282.538C71.5107 282.884 67.8352 284.004 63.5385 284.004Z" fill="white"/>
<path d="M63.5385 284.004C59.2418 284.004 55.5663 282.884 54.9452 282.538C54.9961 282.619 55.0471 282.711 55.0879 282.792C55.6682 283.974 56.3805 293.813 57.9281 297.613C58.203 298.285 58.4987 298.764 58.8245 298.978C59.7103 299.558 61.563 300.169 63.5281 300.078C65.4931 300.169 67.3463 299.558 68.2322 298.978C68.558 298.764 68.8633 298.285 69.128 297.613C70.6756 293.813 71.3884 283.974 71.9688 282.792C72.0095 282.701 72.0707 282.619 72.1114 282.538C71.5107 282.884 67.8352 284.004 63.5385 284.004Z" stroke="#FF7E5B" stroke-width="2.463" stroke-miterlimit="10"/>
<path d="M63.5378 288.455C66.0222 288.415 68.7307 288.119 71.1947 287.335C71.3576 286.174 71.5003 285.114 71.6327 284.31C66.4195 286.286 60.646 286.286 55.443 284.31C55.5754 285.114 55.7181 286.164 55.881 287.335C58.345 288.109 61.0535 288.415 63.5378 288.455Z" fill="#FF7E5B"/>
<path d="M63.5386 293.477C65.7582 293.436 68.1509 293.192 70.3908 292.591C70.5639 291.603 70.727 290.594 70.8696 289.606C66.1147 291.216 60.9523 291.216 56.2076 289.606C56.3502 290.594 56.5133 291.613 56.6864 292.591C58.9264 293.182 61.319 293.436 63.5386 293.477Z" fill="#FF7E5B"/>
<path d="M57.1547 294.934C57.3888 295.973 57.6536 296.9 57.9387 297.613C57.9896 297.725 58.0304 297.827 58.0814 297.929C59.9039 298.285 61.7771 298.458 63.5386 298.489C65.3 298.458 67.1733 298.295 68.9958 297.929C69.0467 297.827 69.0876 297.725 69.1385 297.613C69.4236 296.9 69.6883 295.983 69.9225 294.934C65.7684 296.156 61.319 296.156 57.1547 294.934Z" fill="#FF7E5B"/>
<path d="M63.9661 234.256H63.9253C62.6627 234.256 61.6448 233.238 61.6448 231.975V221.279C61.6448 220.016 62.6627 218.998 63.9253 218.998H63.9661C65.2286 218.998 66.2471 220.016 66.2471 221.279V231.975C66.2471 233.238 65.2286 234.256 63.9661 234.256Z" fill="white"/>
<path d="M63.9661 234.256H63.9253C62.6627 234.256 61.6448 233.238 61.6448 231.975V221.279C61.6448 220.016 62.6627 218.998 63.9253 218.998H63.9661C65.2286 218.998 66.2471 220.016 66.2471 221.279V231.975C66.2471 233.238 65.2286 234.256 63.9661 234.256Z" stroke="#FF7E5B" stroke-width="2.463" stroke-miterlimit="10"/>
<path d="M80.3684 237.21L80.3276 237.19C79.2178 236.599 78.8004 235.214 79.391 234.103L84.441 224.671C85.0316 223.561 86.4165 223.143 87.5263 223.744L87.5671 223.765C88.6769 224.356 89.0943 225.741 88.5037 226.851L83.4537 236.283C82.8631 237.394 81.4883 237.811 80.3684 237.21Z" fill="white"/>
<path d="M80.3684 237.21L80.3276 237.19C79.2178 236.599 78.8004 235.214 79.391 234.103L84.441 224.671C85.0316 223.561 86.4165 223.143 87.5263 223.744L87.5671 223.765C88.6769 224.356 89.0943 225.741 88.5037 226.851L83.4537 236.283C82.8631 237.394 81.4883 237.811 80.3684 237.21Z" stroke="#FF7E5B" stroke-width="2.463" stroke-miterlimit="10"/>
<path d="M92.5157 249.769L92.5257 249.81C92.7802 251.043 93.9922 251.827 95.2243 251.572L105.691 249.372C106.923 249.118 107.707 247.905 107.452 246.673L107.443 246.632C107.178 245.4 105.976 244.615 104.744 244.87L94.2772 247.07C93.0452 247.325 92.2612 248.537 92.5157 249.769Z" fill="white"/>
<path d="M92.5157 249.769L92.5257 249.81C92.7802 251.043 93.9922 251.827 95.2243 251.572L105.691 249.372C106.923 249.118 107.707 247.905 107.452 246.673L107.443 246.632C107.178 245.4 105.976 244.615 104.744 244.87L94.2772 247.07C93.0452 247.325 92.2612 248.537 92.5157 249.769Z" stroke="#FF7E5B" stroke-width="2.463" stroke-miterlimit="10"/>
<path d="M93.0959 266.861L93.1064 266.821C93.4627 265.609 94.7251 264.916 95.9368 265.272L106.2 268.277C107.412 268.634 108.104 269.897 107.748 271.109L107.738 271.15C107.382 272.362 106.119 273.054 104.907 272.698L94.6436 269.693C93.4319 269.347 92.7395 268.073 93.0959 266.861Z" fill="white"/>
<path d="M93.0959 266.861L93.1064 266.821C93.4627 265.609 94.7251 264.916 95.9368 265.272L106.2 268.277C107.412 268.634 108.104 269.897 107.748 271.109L107.738 271.15C107.382 272.362 106.119 273.054 104.907 272.698L94.6436 269.693C93.4319 269.347 92.7395 268.073 93.0959 266.861Z" stroke="#FF7E5B" stroke-width="2.463" stroke-miterlimit="10"/>
<path d="M216.11 44.508C215.966 46.236 216.02 55.794 216.092 57.072C216.11 57.198 219.188 57.324 219.296 57C219.422 55.848 219.44 45.228 219.314 44.472C219.206 44.364 216.686 44.292 216.11 44.508ZM225.248 43.536C224.978 43.77 224.978 56.964 225.122 57.072C225.266 57.162 227.696 57.144 227.696 57.144C227.786 55.758 228.038 43.68 227.912 43.464C227.858 43.338 225.5 43.302 225.248 43.536ZM229.743 48.126C229.635 48.324 229.797 56.928 229.833 56.982C229.869 57.036 232.443 57.09 232.515 56.964C232.569 56.838 232.713 48.198 232.659 48.126C232.587 48.054 229.851 47.946 229.743 48.126ZM229.635 45.264C229.635 46.254 230.283 46.776 231.219 46.776C232.191 46.776 232.875 46.164 232.875 45.372C232.875 44.256 232.191 43.59 231.219 43.59C229.923 43.59 229.635 44.292 229.635 45.264ZM234.506 43.518C234.272 43.752 234.578 56.964 234.722 57.072C234.848 57.18 237.458 57.162 237.458 57.162L237.368 53.958C237.368 53.958 237.98 53.346 238.124 53.328C238.268 53.31 240.536 57.432 240.68 57.45C241.292 57.54 243.362 56.658 243.398 56.532C243.434 56.388 240.338 51.816 240.338 51.816C240.338 51.816 243.11 49.422 243.092 49.17C243.074 48.918 241.148 47.784 240.986 47.784C240.806 47.784 237.242 51.132 237.242 51.132C237.242 51.132 237.458 43.536 237.35 43.464C237.224 43.392 234.74 43.302 234.506 43.518ZM246.356 53.328C247.436 53.364 250.694 53.364 251.594 53.238C251.702 52.878 251.756 52.41 251.756 51.852C251.756 49.836 250.298 48.036 247.904 48.036C245.078 48.036 243.566 50.304 243.566 52.734C243.566 55.038 244.88 57.216 248.138 57.216C249.596 57.216 250.838 56.64 251.324 56.19C251.306 55.92 250.568 54.426 250.388 54.246C249.92 54.534 249.254 54.876 248.282 54.876C247.04 54.876 246.356 54.282 246.356 53.328ZM246.338 51.672C246.338 50.754 246.95 50.052 247.886 50.052C248.75 50.052 249.2 50.736 249.164 51.618L246.338 51.672ZM183.582 72.234C183.528 76.05 183.6 80.946 183.636 81.018C183.69 81.126 186.318 81.162 186.372 81.09C186.426 81.018 186.462 76.464 186.462 75.942C186.462 75.366 186.858 74.574 187.794 74.574C188.73 74.574 188.982 75.24 188.982 76.122C188.982 76.734 188.892 80.946 188.964 80.982C189 81.018 191.718 81.126 191.736 80.964C191.79 80.064 191.844 77.4 191.844 76.104C191.844 75.546 192.132 74.574 193.122 74.574C194.076 74.574 194.31 75.24 194.31 76.122C194.31 76.968 194.22 81.09 194.274 81.126C194.328 81.18 197.064 81.18 197.082 81.018C197.136 80.172 197.208 77.058 197.208 75.834C197.208 73.53 196.2 72.036 193.932 72.036C193.194 72.036 191.826 72.252 191.214 73.332C190.728 72.54 189.918 72.036 188.91 72.036C187.452 72.036 186.768 72.666 186.372 73.26C186.39 73.152 186.408 72.666 186.426 72.288C186.264 72.126 183.744 71.964 183.582 72.234ZM201.339 77.328C202.419 77.364 205.677 77.364 206.577 77.238C206.685 76.878 206.739 76.41 206.739 75.852C206.739 73.836 205.281 72.036 202.887 72.036C200.061 72.036 198.549 74.304 198.549 76.734C198.549 79.038 199.863 81.216 203.121 81.216C204.579 81.216 205.821 80.64 206.307 80.19C206.289 79.92 205.551 78.426 205.371 78.246C204.903 78.534 204.237 78.876 203.265 78.876C202.023 78.876 201.339 78.282 201.339 77.328ZM201.321 75.672C201.321 74.754 201.933 74.052 202.869 74.052C203.733 74.052 204.183 74.736 204.147 75.618L201.321 75.672ZM208.069 72.342C208.015 76.158 208.087 80.856 208.123 80.928C208.177 81.036 210.805 81.072 210.859 81C210.913 80.928 210.931 76.608 210.931 75.996C210.931 75.294 211.525 74.52 212.515 74.52C213.451 74.52 213.883 75.204 213.883 76.176C213.883 76.824 213.793 81.072 213.865 81.108C213.919 81.144 216.619 81.18 216.637 81C216.709 80.118 216.781 77.076 216.781 75.87C216.781 73.548 215.557 71.982 213.595 71.982C212.137 71.982 211.255 72.648 210.859 73.242C210.877 73.134 210.895 72.54 210.913 72.162C210.751 72 208.231 72.108 208.069 72.342ZM222.021 74.52C222.021 74.376 224.199 74.574 224.325 74.358C224.325 74.358 224.469 72.54 224.289 72.288C224.109 72.054 222.129 72.144 222.093 72.162C222.057 72.162 222.219 69.84 222.129 69.75C222.039 69.66 219.555 69.822 219.393 69.984C219.231 70.146 219.339 72.018 219.285 72.09C219.231 72.144 218.025 72.09 217.953 72.108C217.845 72.126 217.863 74.214 217.953 74.304C218.043 74.394 219.195 74.376 219.195 74.394C219.195 74.412 219.087 77.508 219.069 78.354C219.069 80.118 220.077 81.234 222.147 81.234C224.019 81.252 224.775 80.352 224.775 80.352C224.757 79.974 224.361 78.336 224.145 78.282C223.911 78.246 223.461 78.678 222.831 78.678C222.255 78.66 221.949 78.282 221.949 77.706C221.967 76.662 222.021 74.61 222.021 74.52ZM225.463 73.944C225.445 74.142 226.687 75.222 226.849 75.222C227.011 75.204 227.533 74.412 228.649 74.412C230.269 74.412 230.233 75.474 230.215 76.248C229.873 75.996 229.369 75.762 228.541 75.762C226.741 75.762 225.319 76.788 225.319 78.408C225.319 79.974 226.147 81.126 228.109 81.126C229.531 81.126 230.287 80.262 230.413 80.136L230.575 80.91C230.575 80.91 232.843 81.018 232.897 80.91C232.951 80.802 233.041 77.814 233.041 75.888C233.041 73.26 231.313 71.946 229.081 71.946C226.669 71.946 225.481 73.638 225.463 73.944ZM227.731 78.354C227.731 77.778 228.199 77.328 228.901 77.328C229.567 77.328 230.089 77.724 230.089 78.354C230.089 78.894 229.693 79.362 228.901 79.362C228.235 79.362 227.731 78.948 227.731 78.354ZM235.039 67.536C234.769 67.77 234.769 80.964 234.913 81.072C235.057 81.162 237.487 81.144 237.487 81.144C237.577 79.758 237.829 67.68 237.703 67.464C237.649 67.338 235.291 67.302 235.039 67.536ZM243.032 72.234C242.978 76.05 243.05 80.946 243.086 81.018C243.14 81.126 245.768 81.162 245.822 81.09C245.876 81.018 245.912 76.464 245.912 75.942C245.912 75.366 246.308 74.574 247.244 74.574C248.18 74.574 248.432 75.24 248.432 76.122C248.432 76.734 248.342 80.946 248.414 80.982C248.45 81.018 251.168 81.126 251.186 80.964C251.24 80.064 251.294 77.4 251.294 76.104C251.294 75.546 251.582 74.574 252.572 74.574C253.526 74.574 253.76 75.24 253.76 76.122C253.76 76.968 253.67 81.09 253.724 81.126C253.778 81.18 256.514 81.18 256.532 81.018C256.586 80.172 256.658 77.058 256.658 75.834C256.658 73.53 255.65 72.036 253.382 72.036C252.644 72.036 251.276 72.252 250.664 73.332C250.178 72.54 249.368 72.036 248.36 72.036C246.902 72.036 246.218 72.666 245.822 73.26C245.84 73.152 245.858 72.666 245.876 72.288C245.714 72.126 243.194 71.964 243.032 72.234ZM258.106 73.944C258.088 74.142 259.33 75.222 259.492 75.222C259.654 75.204 260.176 74.412 261.292 74.412C262.912 74.412 262.876 75.474 262.858 76.248C262.516 75.996 262.012 75.762 261.184 75.762C259.384 75.762 257.962 76.788 257.962 78.408C257.962 79.974 258.79 81.126 260.752 81.126C262.174 81.126 262.93 80.262 263.056 80.136L263.218 80.91C263.218 80.91 265.486 81.018 265.54 80.91C265.594 80.802 265.684 77.814 265.684 75.888C265.684 73.26 263.956 71.946 261.724 71.946C259.312 71.946 258.124 73.638 258.106 73.944ZM260.374 78.354C260.374 77.778 260.842 77.328 261.544 77.328C262.21 77.328 262.732 77.724 262.732 78.354C262.732 78.894 262.336 79.362 261.544 79.362C260.878 79.362 260.374 78.948 260.374 78.354ZM270.923 74.52C270.923 74.376 273.101 74.574 273.227 74.358C273.227 74.358 273.371 72.54 273.191 72.288C273.011 72.054 271.031 72.144 270.995 72.162C270.959 72.162 271.121 69.84 271.031 69.75C270.941 69.66 268.457 69.822 268.295 69.984C268.133 70.146 268.241 72.018 268.187 72.09C268.133 72.144 266.927 72.09 266.855 72.108C266.747 72.126 266.765 74.214 266.855 74.304C266.945 74.394 268.097 74.376 268.097 74.394C268.097 74.412 267.989 77.508 267.971 78.354C267.971 80.118 268.979 81.234 271.049 81.234C272.921 81.252 273.677 80.352 273.677 80.352C273.659 79.974 273.263 78.336 273.047 78.282C272.813 78.246 272.363 78.678 271.733 78.678C271.157 78.66 270.851 78.282 270.851 77.706C270.869 76.662 270.923 74.61 270.923 74.52ZM274.761 67.518C274.671 68.508 274.725 80.874 274.779 80.982C274.833 81.09 277.515 81.126 277.569 81.054C277.623 81 277.641 76.626 277.641 76.014C277.641 75.312 278.181 74.538 279.171 74.538C280.107 74.538 280.521 75.42 280.521 76.176C280.521 76.824 280.467 80.856 280.503 81.054C280.539 81.09 283.203 81.108 283.293 80.946C283.401 80.604 283.545 77.076 283.545 75.87C283.545 73.548 282.321 72 279.873 72C278.613 72 277.911 72.54 277.515 73.08C277.569 72.63 277.659 68.022 277.605 67.572C277.533 67.176 274.869 67.41 274.761 67.518Z" fill="#FF4918"/>
<path d="M402.12 91.896C401.992 93.432 402.04 101.928 402.104 103.064C402.12 103.176 404.856 103.288 404.952 103C405.064 101.976 405.08 92.536 404.968 91.864C404.872 91.768 402.632 91.704 402.12 91.896ZM412.147 99.16C412.147 97.928 412.851 97.288 413.987 97.288C414.915 97.288 415.747 98.008 415.859 97.992C416.147 97.896 416.595 96.072 416.547 95.88C416.499 95.72 415.459 95.032 413.763 95.032C411.171 95.032 409.619 97.016 409.619 99.032C409.619 101.048 410.803 103.208 413.811 103.208C415.043 103.208 416.147 102.632 416.563 101.944C416.355 101.496 415.763 100.344 415.603 100.392C415.411 100.488 414.643 100.968 413.907 100.968C413.219 100.968 412.147 100.696 412.147 99.16ZM417.419 96.728C417.403 96.904 418.507 97.864 418.651 97.864C418.795 97.848 419.259 97.144 420.251 97.144C421.691 97.144 421.659 98.088 421.643 98.776C421.339 98.552 420.891 98.344 420.155 98.344C418.555 98.344 417.291 99.256 417.291 100.696C417.291 102.088 418.027 103.112 419.771 103.112C421.035 103.112 421.707 102.344 421.819 102.232L421.963 102.92C421.963 102.92 423.979 103.016 424.027 102.92C424.075 102.824 424.155 100.168 424.155 98.456C424.155 96.12 422.619 94.952 420.635 94.952C418.491 94.952 417.435 96.456 417.419 96.728ZM419.435 100.648C419.435 100.136 419.851 99.736 420.475 99.736C421.067 99.736 421.531 100.088 421.531 100.648C421.531 101.128 421.179 101.544 420.475 101.544C419.883 101.544 419.435 101.176 419.435 100.648ZM425.723 95.304C425.675 98.696 425.739 102.872 425.771 102.936C425.819 103.032 428.155 103.064 428.203 103C428.251 102.936 428.267 99.096 428.267 98.552C428.267 97.928 428.795 97.24 429.675 97.24C430.507 97.24 430.891 97.848 430.891 98.712C430.891 99.288 430.811 103.064 430.875 103.096C430.923 103.128 433.323 103.16 433.339 103C433.403 102.216 433.467 99.512 433.467 98.44C433.467 96.376 432.379 94.984 430.635 94.984C429.339 94.984 428.555 95.576 428.203 96.104C428.219 96.008 428.235 95.48 428.251 95.144C428.107 95 425.867 95.096 425.723 95.304ZM441.056 103.272C443.296 103.272 444.256 101.992 444.256 100.584C444.256 99.096 443.408 98.44 441.504 98.168C440.576 98.04 440.304 97.88 440.304 97.528C440.304 97.208 440.576 96.904 441.2 96.904C442.128 96.904 443.152 97.528 443.232 97.528C443.344 97.512 444.08 95.832 443.936 95.688C443.728 95.48 442.432 94.984 440.96 94.984C438.992 94.984 437.824 95.976 437.824 97.688C437.824 99.032 438.656 99.784 440.448 100.088C441.488 100.28 441.744 100.472 441.744 100.824C441.744 101.176 441.424 101.4 440.784 101.4C439.76 101.4 438.768 100.68 438.512 100.552C438.384 100.488 437.648 102.232 437.776 102.392C438 102.632 439.456 103.272 441.056 103.272ZM450.673 99.192C450.673 100.312 450.081 100.984 448.961 100.952C448.209 100.936 447.489 100.328 447.489 99.208C447.489 98.168 448.049 97.448 449.185 97.48C449.937 97.512 450.673 97.912 450.673 99.192ZM449.057 95.048C446.561 95.048 445.025 97.016 445.025 99.016C445.025 101.624 446.817 103.192 449.089 103.192C451.649 103.144 453.137 101.288 453.137 99.224C453.137 96.584 451.329 95.048 449.057 95.048ZM454.587 91.032C454.347 91.24 454.347 102.968 454.475 103.064C454.603 103.144 456.763 103.128 456.763 103.128C456.843 101.896 457.067 91.16 456.955 90.968C456.907 90.856 454.811 90.824 454.587 91.032ZM458.006 95.416C457.99 95.88 460.598 103.016 460.614 103.048C460.63 103.08 462.982 103.288 463.174 103.112C463.254 103.032 466.23 96.504 466.47 95.496C466.486 95.4 464.134 94.904 464.054 94.92C463.958 94.936 462.118 99.864 462.022 100.12C461.942 99.864 460.47 94.936 460.326 94.936C460.118 94.936 458.006 95.288 458.006 95.416ZM469.146 99.736C470.106 99.768 473.002 99.768 473.802 99.656C473.898 99.336 473.946 98.92 473.946 98.424C473.946 96.632 472.65 95.032 470.522 95.032C468.01 95.032 466.666 97.048 466.666 99.208C466.666 101.256 467.834 103.192 470.73 103.192C472.026 103.192 473.13 102.68 473.562 102.28C473.546 102.04 472.89 100.712 472.73 100.552C472.314 100.808 471.722 101.112 470.858 101.112C469.754 101.112 469.146 100.584 469.146 99.736ZM469.13 98.264C469.13 97.448 469.674 96.824 470.506 96.824C471.274 96.824 471.674 97.432 471.642 98.216L469.13 98.264ZM401.304 117.4C401.288 117.896 403.384 125.016 403.4 125.048C403.416 125.08 405.72 125.288 405.928 125.112C405.96 125.064 406.712 123.304 407.4 121.288C407.912 123.352 408.472 125.016 408.488 125.032C408.504 125.08 410.808 125.288 411.016 125.112C411.096 125.032 413.4 118.472 413.624 117.464C413.64 117.368 411.4 116.888 411.304 116.904C411.224 116.92 409.784 121.912 409.688 122.168C409.608 121.912 408.376 117.08 408.216 116.984C408.024 116.872 406.168 117.064 406.008 117.224C406.008 117.4 406.296 118.168 406.376 118.44C406.2 119.048 405.368 120.952 404.968 122.2C404.968 122.2 403.816 116.936 403.624 116.936C403.416 116.936 401.304 117.288 401.304 117.4ZM419.611 121.192C419.611 122.312 419.019 122.984 417.899 122.952C417.147 122.936 416.427 122.328 416.427 121.208C416.427 120.168 416.987 119.448 418.123 119.48C418.875 119.512 419.611 119.912 419.611 121.192ZM417.995 117.048C415.499 117.048 413.963 119.016 413.963 121.016C413.963 123.624 415.755 125.192 418.027 125.192C420.587 125.144 422.075 123.288 422.075 121.224C422.075 118.584 420.267 117.048 417.995 117.048ZM428.66 117.144C427.588 116.984 426.452 117.192 425.86 118.232C425.86 118.136 425.876 117.464 425.86 117.128C425.716 116.984 423.508 117.064 423.364 117.32C423.3 117.624 423.3 124.952 423.348 125.016C423.396 125.112 425.988 125.08 426.02 125.016C426.084 124.968 425.956 121.24 425.988 120.888C426.084 120.184 426.468 119.672 427.204 119.656C427.54 119.64 428.068 119.752 428.324 119.816C428.596 119.496 428.916 117.288 428.66 117.144ZM432.718 125.048C434.062 125.048 434.99 124.312 435.118 124.12C435.134 124.232 435.166 124.888 435.166 125C435.742 125.224 437.486 125.064 437.534 125.016C437.582 124.84 437.774 113 437.742 112.984C437.422 112.824 435.23 112.92 435.086 113.032C434.942 113.128 434.974 117.416 434.974 117.944C434.846 117.736 433.966 117.096 432.91 117.096C431.038 117.112 429.198 118.488 429.198 120.984C429.198 123.64 430.91 125.048 432.718 125.048ZM431.95 121.08C431.95 120.088 432.51 119.4 433.518 119.4C434.382 119.4 435.102 120.008 435.102 121.064C435.102 122.024 434.59 122.744 433.518 122.744C432.638 122.744 431.95 122.168 431.95 121.08ZM406.776 139.032C405.336 139.032 404.488 139.736 404.376 139.928C404.376 139.832 404.392 139.16 404.392 139.064C404.392 139.064 402.008 138.936 401.992 138.984C401.848 139.336 401.752 150.44 401.8 150.456C402.104 150.616 404.296 150.52 404.44 150.408C404.584 150.312 404.52 146.92 404.52 146.392C404.648 146.6 405.528 147.096 406.584 147.096C408.552 147.08 410.28 145.656 410.28 143.096C410.28 140.44 408.664 139.032 406.776 139.032ZM407.576 143.128C407.576 144.12 407 144.808 405.992 144.808C405.192 144.808 404.456 144.168 404.456 143.112C404.456 142.152 404.968 141.464 406.056 141.464C406.92 141.464 407.576 142.04 407.576 143.128ZM416.91 139.144C415.838 138.984 414.702 139.192 414.11 140.232C414.11 140.136 414.126 139.464 414.11 139.128C413.966 138.984 411.758 139.064 411.614 139.32C411.55 139.624 411.55 146.952 411.598 147.016C411.646 147.112 414.238 147.08 414.27 147.016C414.334 146.968 414.206 143.24 414.238 142.888C414.334 142.184 414.718 141.672 415.454 141.656C415.79 141.64 416.318 141.752 416.574 141.816C416.846 141.496 417.166 139.288 416.91 139.144ZM423.064 143.192C423.064 144.312 422.472 144.984 421.352 144.952C420.6 144.936 419.88 144.328 419.88 143.208C419.88 142.168 420.44 141.448 421.576 141.48C422.328 141.512 423.064 141.912 423.064 143.192ZM421.448 139.048C418.952 139.048 417.416 141.016 417.416 143.016C417.416 145.624 419.208 147.192 421.48 147.192C424.04 147.144 425.528 145.288 425.528 143.224C425.528 140.584 423.72 139.048 421.448 139.048ZM431.57 147.16C433.362 147.16 434.994 145.816 434.994 142.872C434.994 140.312 433.442 139.032 431.762 139.016C430.546 139.016 429.698 139.704 429.554 139.928C429.57 139.576 429.522 135.144 429.442 135.064C429.346 134.984 427.138 134.68 426.754 135.064C426.354 135.48 426.978 146.968 427.042 147.16C427.09 147.224 428.946 147.192 429.186 147.112C429.218 147 429.186 146.264 429.186 146.168C429.314 146.344 430.29 147.16 431.57 147.16ZM432.562 143.048C432.562 144.152 431.922 144.76 430.914 144.76C429.938 144.76 429.362 144.008 429.362 143.032C429.362 141.96 429.954 141.32 430.93 141.32C431.858 141.32 432.562 142.024 432.562 143.048ZM436.478 135.032C436.238 135.24 436.238 146.968 436.366 147.064C436.493 147.144 438.654 147.128 438.654 147.128C438.734 145.896 438.958 135.16 438.846 134.968C438.798 134.856 436.702 134.824 436.478 135.032ZM442.537 143.736C443.497 143.768 446.393 143.768 447.193 143.656C447.289 143.336 447.337 142.92 447.337 142.424C447.337 140.632 446.041 139.032 443.913 139.032C441.401 139.032 440.057 141.048 440.057 143.208C440.057 145.256 441.225 147.192 444.121 147.192C445.417 147.192 446.521 146.68 446.953 146.28C446.937 146.04 446.281 144.712 446.121 144.552C445.705 144.808 445.113 145.112 444.249 145.112C443.145 145.112 442.537 144.584 442.537 143.736ZM442.521 142.264C442.521 141.448 443.065 140.824 443.897 140.824C444.665 140.824 445.065 141.432 445.033 142.216L442.521 142.264ZM448.52 139.208C448.472 142.6 448.536 146.952 448.568 147.016C448.616 147.112 450.952 147.144 451 147.08C451.048 147.016 451.08 142.968 451.08 142.504C451.08 141.992 451.432 141.288 452.264 141.288C453.096 141.288 453.32 141.88 453.32 142.664C453.32 143.208 453.24 146.952 453.304 146.984C453.336 147.016 455.752 147.112 455.767 146.968C455.816 146.168 455.864 143.8 455.864 142.648C455.864 142.152 456.12 141.288 457 141.288C457.848 141.288 458.056 141.88 458.056 142.664C458.056 143.416 457.976 147.08 458.024 147.112C458.072 147.16 460.504 147.16 460.52 147.016C460.568 146.264 460.632 143.496 460.632 142.408C460.632 140.36 459.736 139.032 457.72 139.032C457.064 139.032 455.848 139.224 455.304 140.184C454.872 139.48 454.152 139.032 453.256 139.032C451.96 139.032 451.352 139.592 451 140.12C451.016 140.024 451.032 139.592 451.048 139.256C450.904 139.112 448.664 138.968 448.52 139.208ZM465.119 147.272C467.359 147.272 468.319 145.992 468.319 144.584C468.319 143.096 467.471 142.44 465.567 142.168C464.639 142.04 464.367 141.88 464.367 141.528C464.367 141.208 464.639 140.904 465.263 140.904C466.191 140.904 467.215 141.528 467.295 141.528C467.407 141.512 468.143 139.832 467.999 139.688C467.791 139.48 466.495 138.984 465.023 138.984C463.055 138.984 461.887 139.976 461.887 141.688C461.887 143.032 462.719 143.784 464.511 144.088C465.551 144.28 465.807 144.472 465.807 144.824C465.807 145.176 465.487 145.4 464.847 145.4C463.823 145.4 462.831 144.68 462.575 144.552C462.447 144.488 461.711 146.232 461.839 146.392C462.063 146.632 463.519 147.272 465.119 147.272Z" fill="#FF4918"/>
<path d="M266.4 301.219C266.24 303.139 266.3 313.759 266.38 315.179C266.4 315.319 269.82 315.459 269.94 315.099C270.08 313.819 270.1 302.019 269.96 301.179C269.84 301.059 267.04 300.979 266.4 301.219ZM276.228 303.019C276.228 301.499 275.248 300.999 274.328 300.939C272.808 300.859 271.968 301.679 271.968 303.059C271.968 304.219 272.808 304.959 273.688 305.059C273.268 305.939 272.228 307.939 272.268 307.999C272.568 308.459 274.008 308.839 274.068 308.759C274.788 307.519 276.228 304.719 276.228 303.019ZM277.72 305.359C277.66 309.599 277.74 315.039 277.78 315.119C277.84 315.239 280.76 315.279 280.82 315.199C280.88 315.119 280.92 310.059 280.92 309.479C280.92 308.839 281.36 307.959 282.4 307.959C283.44 307.959 283.72 308.699 283.72 309.679C283.72 310.359 283.62 315.039 283.7 315.079C283.74 315.119 286.76 315.239 286.78 315.059C286.84 314.059 286.9 311.099 286.9 309.659C286.9 309.039 287.22 307.959 288.32 307.959C289.38 307.959 289.64 308.699 289.64 309.679C289.64 310.619 289.54 315.199 289.6 315.239C289.66 315.299 292.7 315.299 292.72 315.119C292.78 314.179 292.86 310.719 292.86 309.359C292.86 306.799 291.74 305.139 289.22 305.139C288.4 305.139 286.88 305.379 286.2 306.579C285.66 305.699 284.76 305.139 283.64 305.139C282.02 305.139 281.26 305.839 280.82 306.499C280.84 306.379 280.86 305.839 280.88 305.419C280.7 305.239 277.9 305.059 277.72 305.359Z" fill="#FF4918"/>
<path d="M257.66 338.34C260.46 338.34 261.66 336.74 261.66 334.98C261.66 333.12 260.6 332.3 258.22 331.96C257.06 331.8 256.72 331.6 256.72 331.16C256.72 330.76 257.06 330.38 257.84 330.38C259 330.38 260.28 331.16 260.38 331.16C260.52 331.14 261.44 329.04 261.26 328.86C261 328.6 259.38 327.98 257.54 327.98C255.08 327.98 253.62 329.22 253.62 331.36C253.62 333.04 254.66 333.98 256.9 334.36C258.2 334.6 258.52 334.84 258.52 335.28C258.52 335.72 258.12 336 257.32 336C256.04 336 254.8 335.1 254.48 334.94C254.32 334.86 253.4 337.04 253.56 337.24C253.84 337.54 255.66 338.34 257.66 338.34ZM263.142 328.26C263.082 332.5 263.162 337.94 263.202 338.02C263.262 338.14 266.182 338.18 266.242 338.1C266.302 338.02 266.342 332.96 266.342 332.38C266.342 331.74 266.782 330.86 267.822 330.86C268.862 330.86 269.142 331.6 269.142 332.58C269.142 333.26 269.042 337.94 269.122 337.98C269.162 338.02 272.182 338.14 272.202 337.96C272.262 336.96 272.322 334 272.322 332.56C272.322 331.94 272.642 330.86 273.742 330.86C274.802 330.86 275.062 331.6 275.062 332.58C275.062 333.52 274.962 338.1 275.022 338.14C275.082 338.2 278.122 338.2 278.142 338.02C278.202 337.08 278.282 333.62 278.282 332.26C278.282 329.7 277.162 328.04 274.642 328.04C273.822 328.04 272.302 328.28 271.622 329.48C271.082 328.6 270.182 328.04 269.062 328.04C267.442 328.04 266.682 328.74 266.242 329.4C266.262 329.28 266.282 328.74 266.302 328.32C266.122 328.14 263.322 327.96 263.142 328.26ZM279.89 330.16C279.87 330.38 281.25 331.58 281.43 331.58C281.61 331.56 282.19 330.68 283.43 330.68C285.23 330.68 285.19 331.86 285.17 332.72C284.79 332.44 284.23 332.18 283.31 332.18C281.31 332.18 279.73 333.32 279.73 335.12C279.73 336.86 280.65 338.14 282.83 338.14C284.41 338.14 285.25 337.18 285.39 337.04L285.57 337.9C285.57 337.9 288.09 338.02 288.15 337.9C288.21 337.78 288.31 334.46 288.31 332.32C288.31 329.4 286.39 327.94 283.91 327.94C281.23 327.94 279.91 329.82 279.89 330.16ZM282.41 335.06C282.41 334.42 282.93 333.92 283.71 333.92C284.45 333.92 285.03 334.36 285.03 335.06C285.03 335.66 284.59 336.18 283.71 336.18C282.97 336.18 282.41 335.72 282.41 335.06ZM296.95 328.18C295.61 327.98 294.19 328.24 293.45 329.54C293.45 329.42 293.47 328.58 293.45 328.16C293.27 327.98 290.51 328.08 290.33 328.4C290.25 328.78 290.25 337.94 290.31 338.02C290.37 338.14 293.61 338.1 293.65 338.02C293.73 337.96 293.57 333.3 293.61 332.86C293.73 331.98 294.21 331.34 295.13 331.32C295.55 331.3 296.21 331.44 296.53 331.52C296.87 331.12 297.27 328.36 296.95 328.18ZM302.218 330.8C302.218 330.64 304.638 330.86 304.778 330.62C304.778 330.62 304.938 328.6 304.738 328.32C304.538 328.06 302.338 328.16 302.298 328.18C302.258 328.18 302.438 325.6 302.338 325.5C302.238 325.4 299.478 325.58 299.298 325.76C299.118 325.94 299.238 328.02 299.178 328.1C299.118 328.16 297.778 328.1 297.698 328.12C297.578 328.14 297.598 330.46 297.698 330.56C297.798 330.66 299.078 330.64 299.078 330.66C299.078 330.68 298.958 334.12 298.938 335.06C298.938 337.02 300.058 338.26 302.358 338.26C304.438 338.28 305.278 337.28 305.278 337.28C305.258 336.86 304.818 335.04 304.578 334.98C304.318 334.94 303.818 335.42 303.118 335.42C302.478 335.4 302.138 334.98 302.138 334.34C302.158 333.18 302.218 330.9 302.218 330.8Z" fill="#FF4918"/>
<path d="M670.444 294.682C670.279 296.663 670.341 307.618 670.424 309.083C670.444 309.227 673.972 309.371 674.096 309C674.24 307.68 674.261 295.507 674.116 294.641C673.993 294.517 671.104 294.435 670.444 294.682ZM680.582 296.539C680.582 294.971 679.571 294.455 678.622 294.393C677.054 294.311 676.187 295.157 676.187 296.58C676.187 297.777 677.054 298.54 677.962 298.643C677.529 299.551 676.456 301.614 676.497 301.676C676.806 302.151 678.292 302.542 678.354 302.46C679.096 301.181 680.582 298.293 680.582 296.539ZM682.121 298.953C682.059 303.326 682.142 308.938 682.183 309.021C682.245 309.144 685.257 309.186 685.319 309.103C685.381 309.021 685.422 303.801 685.422 303.203C685.422 302.542 685.876 301.635 686.949 301.635C688.021 301.635 688.31 302.398 688.31 303.409C688.31 304.11 688.207 308.938 688.29 308.979C688.331 309.021 691.446 309.144 691.467 308.959C691.529 307.927 691.591 304.874 691.591 303.388C691.591 302.749 691.921 301.635 693.055 301.635C694.149 301.635 694.417 302.398 694.417 303.409C694.417 304.379 694.314 309.103 694.376 309.144C694.438 309.206 697.574 309.206 697.594 309.021C697.656 308.051 697.739 304.482 697.739 303.079C697.739 300.438 696.583 298.726 693.984 298.726C693.138 298.726 691.57 298.973 690.869 300.211C690.312 299.303 689.383 298.726 688.228 298.726C686.557 298.726 685.773 299.448 685.319 300.129C685.339 300.005 685.36 299.448 685.381 299.015C685.195 298.829 682.307 298.643 682.121 298.953ZM672.796 332.049C672.796 330.46 673.704 329.635 675.169 329.635C676.365 329.635 677.438 330.563 677.582 330.542C677.954 330.419 678.532 328.067 678.47 327.819C678.408 327.613 677.067 326.726 674.88 326.726C671.538 326.726 669.536 329.284 669.536 331.884C669.536 334.483 671.063 337.268 674.942 337.268C676.53 337.268 677.954 336.525 678.49 335.638C678.222 335.061 677.459 333.575 677.252 333.637C677.005 333.761 676.015 334.38 675.066 334.38C674.178 334.38 672.796 334.029 672.796 332.049ZM686.51 332.09C686.51 333.534 685.747 334.4 684.303 334.359C683.333 334.339 682.405 333.555 682.405 332.11C682.405 330.769 683.127 329.841 684.591 329.882C685.561 329.924 686.51 330.439 686.51 332.09ZM684.426 326.746C681.208 326.746 679.227 329.284 679.227 331.863C679.227 335.226 681.538 337.248 684.468 337.248C687.769 337.186 689.687 334.792 689.687 332.131C689.687 328.727 687.356 326.746 684.426 326.746ZM691.288 327.076C691.226 331.45 691.309 336.835 691.35 336.917C691.412 337.041 694.424 337.083 694.486 337C694.548 336.917 694.568 331.966 694.568 331.265C694.568 330.46 695.249 329.573 696.384 329.573C697.457 329.573 697.952 330.357 697.952 331.471C697.952 332.214 697.849 337.083 697.931 337.124C697.993 337.165 701.088 337.206 701.108 337C701.191 335.989 701.273 332.502 701.273 331.12C701.273 328.459 699.871 326.664 697.622 326.664C695.951 326.664 694.94 327.427 694.486 328.108C694.507 327.984 694.527 327.303 694.548 326.87C694.362 326.684 691.474 326.808 691.288 327.076ZM707.547 326.829C707.547 326.746 707.527 326.251 707.527 326.004C707.527 324.972 708.043 324.436 709.115 324.436C710.209 324.436 710.704 324.993 710.952 324.951C711.117 324.951 711.942 323.239 712.024 322.703C711.632 322.373 710.394 321.465 708.187 321.465C705.649 321.465 704.267 323.507 704.267 325.323C704.267 326.127 704.329 326.829 704.329 326.85C704.329 326.87 702.513 326.994 702.41 327.118C702.307 327.242 702.493 329.428 702.575 329.47C702.658 329.511 704.123 329.47 704.288 329.49C704.288 329.676 704.226 336.835 704.37 337.083C704.515 337.289 707.63 337.103 707.733 337C707.836 336.897 707.547 329.408 707.589 329.428C707.609 329.449 709.569 329.449 710.848 329.408C710.848 332.276 710.952 336.938 710.993 336.979C711.034 337.041 713.984 337.103 714.067 336.959C714.149 336.814 714.335 326.953 714.232 326.911C713.84 326.788 708.414 326.891 707.547 326.829ZM720.415 337.062C722.148 337.062 723.345 336.113 723.51 335.865C723.531 336.01 723.572 336.856 723.572 337C724.315 337.289 726.563 337.083 726.625 337.021C726.687 336.794 726.935 321.527 726.893 321.506C726.481 321.3 723.654 321.424 723.469 321.568C723.283 321.692 723.324 327.221 723.324 327.902C723.159 327.634 722.025 326.808 720.663 326.808C718.249 326.829 715.877 328.603 715.877 331.822C715.877 335.246 718.084 337.062 720.415 337.062ZM719.425 331.945C719.425 330.666 720.147 329.779 721.447 329.779C722.561 329.779 723.489 330.563 723.489 331.925C723.489 333.163 722.829 334.091 721.447 334.091C720.312 334.091 719.425 333.348 719.425 331.945ZM731.606 332.791C732.843 332.833 736.578 332.833 737.609 332.688C737.733 332.276 737.795 331.739 737.795 331.1C737.795 328.789 736.124 326.726 733.38 326.726C730.141 326.726 728.408 329.325 728.408 332.11C728.408 334.751 729.914 337.248 733.648 337.248C735.319 337.248 736.743 336.587 737.3 336.072C737.279 335.762 736.433 334.05 736.227 333.843C735.691 334.174 734.927 334.566 733.813 334.566C732.39 334.566 731.606 333.885 731.606 332.791ZM731.585 330.893C731.585 329.841 732.286 329.036 733.359 329.036C734.35 329.036 734.865 329.82 734.824 330.831L731.585 330.893ZM739.32 327.076C739.258 331.45 739.34 336.835 739.382 336.917C739.443 337.041 742.456 337.083 742.517 337C742.579 336.917 742.6 331.966 742.6 331.265C742.6 330.46 743.281 329.573 744.415 329.573C745.488 329.573 745.983 330.357 745.983 331.471C745.983 332.214 745.88 337.083 745.963 337.124C746.025 337.165 749.119 337.206 749.14 337C749.223 335.989 749.305 332.502 749.305 331.12C749.305 328.459 747.902 326.664 745.653 326.664C743.982 326.664 742.971 327.427 742.517 328.108C742.538 327.984 742.559 327.303 742.579 326.87C742.394 326.684 739.505 326.808 739.32 327.076ZM755.311 329.573C755.311 329.408 757.807 329.635 757.952 329.387C757.952 329.387 758.117 327.303 757.91 327.015C757.704 326.746 755.435 326.85 755.393 326.87C755.352 326.87 755.538 324.209 755.435 324.106C755.331 324.002 752.484 324.188 752.299 324.374C752.113 324.56 752.237 326.705 752.175 326.788C752.113 326.85 750.731 326.788 750.648 326.808C750.524 326.829 750.545 329.222 750.648 329.325C750.751 329.428 752.072 329.408 752.072 329.428C752.072 329.449 751.948 332.998 751.927 333.967C751.927 335.989 753.083 337.268 755.455 337.268C757.601 337.289 758.467 336.257 758.467 336.257C758.447 335.824 757.993 333.947 757.745 333.885C757.477 333.843 756.961 334.339 756.239 334.339C755.579 334.318 755.228 333.885 755.228 333.225C755.249 332.028 755.311 329.676 755.311 329.573Z" fill="#FF4918"/>
</svg>
